<svg width="852" height="716" viewBox="0 0 852 716" fill="none" xmlns="http://www.w3.org/2000/svg">
<path d="M844.69 423.61C830.64 384.43 808.5 372.5 787.45 347.37C761.74 316.67 744.4 294.36 751.07 254.88C761.98 190.36 766.65 29.46 595.85 50.49C534.63 58.03 486.25 104.94 451.06 151.77C421.11 191.62 367.24 195.13 323.88 204.42C270.61 215.83 216.34 233.08 167.05 258.34C65.5401 310.37 35.2201 385.17 39.3601 480.87C40.6101 509.78 44.7001 555.32 93.5401 608.62C159.46 680.55 255.25 690.18 370.55 657.15C396.94 649.59 421.89 637.73 447.85 628.8C474.82 619.52 502.88 613.43 531.27 610.69C597.49 604.29 666.13 615.87 729.66 596.1C763.25 585.65 794.1 566.51 818.39 541.07C848.73 509.28 859.53 464.97 844.69 423.61Z" fill="#F0FAF4"/>
<path d="M741.87 365.14C749.36 352.82 745.53 336.96 748.14 322.78C750.14 311.88 756.21 301.77 764.89 294.87C770.34 290.54 777.99 287.45 784.14 290.69C785.47 291.39 787.06 292.38 788.34 291.59C789.11 291.12 789.41 290.17 789.59 289.29C791.15 281.63 787.47 273.26 790.48 266.05C792.1 262.17 795.45 259.26 799 257C805.84 252.64 813.85 250.12 821.96 249.8C824.11 249.71 826.35 249.8 828.28 250.76C831.76 252.5 833.35 256.84 832.88 260.7C832.41 264.57 830.28 268.02 827.92 271.12C820.06 281.4 808.54 290.27 807.02 303.12C806.83 304.74 806.83 306.46 807.57 307.91C808.29 309.31 809.63 310.32 810.39 311.7C812.81 316.15 808.13 321.2 803.56 323.39C799.39 325.39 794.86 326.64 790.25 327.07C787.08 327.37 783.49 327.44 781.34 329.79C777.36 334.11 781.93 341.03 781.1 346.85C780.58 350.48 777.94 353.41 775.3 355.96C770.39 360.68 765.02 364.92 759.28 368.6C754.63 371.58 749.71 374.21 745.58 377.89C741.46 381.57 738.13 386.54 737.86 392.05" fill="#52D2BC"/>
<path d="M751.73 353.16C752.95 347.19 755.73 341.66 758.48 336.22C762.78 327.72 767.16 319.09 773.66 312.11C778.59 306.81 784.6 302.62 789.62 297.41C793.19 293.69 796.24 289.47 798.63 284.9C799.93 282.42 801.05 279.82 802.8 277.64C804.88 275.05 807.72 273.21 810.19 270.99C813.53 268 816.22 264.29 818.03 260.18" stroke="#00AD9F" stroke-miterlimit="10" stroke-linecap="round" stroke-linejoin="round"/>
<path d="M849.38 373.7C847.7 380.19 845.19 386.61 840.89 391.76C837.92 395.31 834.22 398.11 830.18 400.4C828.1 401.59 825.91 402.63 823.7 403.56C815.13 407.16 805.91 409.2 796.63 409.56C783.1 410.07 769.19 407.08 756.21 410.94C750.25 412.71 744.76 415.92 740.26 420.18C737.44 422.82 735.02 425.88 733.1 429.23L734.87 418C738.14 405.92 741.48 393.62 748.17 383.04C752.48 376.18 758.08 370.21 764.04 364.72C773.56 355.93 784.12 348.19 795.77 342.54C805.19 337.97 815.65 334.75 826.06 336.02C836.45 337.28 846.67 343.85 849.92 353.81C851.98 360.21 851.07 367.19 849.38 373.7Z" fill="#5193F4"/>
<path d="M743.7 409.46C753.64 394.75 768.53 383.45 785.38 377.82C795.87 374.32 806.97 372.99 817.6 369.92C828.23 366.85 838.83 361.64 845.07 352.5" stroke="#0B43A4" stroke-miterlimit="10" stroke-linecap="round" stroke-linejoin="round"/>
<path d="M750.25 517.33C750.84 502.23 758.65 488.28 768.13 476.51C776.04 466.69 785.58 457.71 797.37 453.23C801.06 451.83 805.12 450.89 808.95 451.83C812.79 452.77 816.26 456.05 816.33 460C816.39 463.33 814.15 466.24 811.8 468.6C804.05 476.36 794.04 481.34 784.65 487.01C768.52 496.76 753.19 509.77 746.78 527.5" fill="#52D2BC"/>
<path d="M756.22 504.12C766.08 482.13 791.6 462.47 808.43 460.01" stroke="#00AD9F" stroke-miterlimit="10" stroke-linecap="round" stroke-linejoin="round"/>
<path d="M744.09 529.34C743.96 526.81 752.21 520.19 754.07 518.5C764.38 509.15 776.63 502.28 789.57 498.22C794.81 496.58 800.37 495.38 805.61 496.65C810.85 497.92 815.65 502.21 816.17 507.86C816.67 513.34 812.99 518.7 808.3 521.35C803.61 524 798.12 524.4 792.89 524.1C784.8 523.63 776.87 521.62 768.75 521.68C760.63 521.74 749.24 522.56 744.09 529.34Z" fill="#00AD9F"/>
<path d="M752.49 521.66C769.08 512.67 794.15 506.83 812.36 509.03" stroke="#00AD9F" stroke-miterlimit="10" stroke-linecap="round" stroke-linejoin="round"/>
<path opacity="0.2" d="M830.18 400.4C828.1 401.59 825.91 402.63 823.7 403.56C815.13 407.16 805.91 409.2 796.63 409.56C783.1 410.07 769.19 407.08 756.21 410.94C750.25 412.71 744.76 415.92 740.26 420.18C739.81 420.4 739.36 420.65 738.9 420.91C737.82 411.75 760.66 399.81 767.6 396.7C780.13 391.09 794.1 388.59 807.79 389.69C813.79 390.17 819.94 391.35 824.88 394.76C827 396.22 828.86 398.18 830.18 400.4Z" fill="#5275A0"/>
<path d="M807.79 395.17C813.78 395.65 819.93 396.82 824.88 400.24C829.83 403.65 833.31 409.74 832.16 415.65C830.82 422.52 823.71 427 816.75 427.84C809.79 428.68 802.85 426.77 795.99 425.36C780.81 422.23 765.14 421.52 749.73 423.25C745.89 423.68 742.24 424.44 738.88 426.41C737.8 417.24 760.65 405.31 767.59 402.2C780.13 396.57 794.09 394.07 807.79 395.17Z" fill="#52D2BC"/>
<path d="M744.83 420.62C756.17 410.65 785.29 403.88 805.89 406.06C812.09 406.72 818.35 408.57 823.12 412.59" stroke="#00AD9F" stroke-miterlimit="10" stroke-linecap="round" stroke-linejoin="round"/>
<path d="M352.37 590.72C388.887 590.72 418.49 587.953 418.49 584.54C418.49 581.127 388.887 578.36 352.37 578.36C315.853 578.36 286.25 581.127 286.25 584.54C286.25 587.953 315.853 590.72 352.37 590.72Z" fill="#C8DBFB"/>
<path d="M692.04 590.72C728.557 590.72 758.16 587.953 758.16 584.54C758.16 581.127 728.557 578.36 692.04 578.36C655.523 578.36 625.92 581.127 625.92 584.54C625.92 587.953 655.523 590.72 692.04 590.72Z" fill="#C8DBFB"/>
<path d="M691.02 248.6L812.57 248.35C826.83 248.32 838.42 259.86 838.45 274.12C838.48 288.38 826.94 299.97 812.68 300L729.54 300.17" stroke="#0B43A4" stroke-miterlimit="10" stroke-linecap="round" stroke-linejoin="round" stroke-dasharray="4 4"/>
<path d="M272.31 346.62L175.54 346.82C166.37 346.84 158.96 354.28 158.98 363.45C159 372.62 166.44 380.03 175.61 380.01L203.83 379.95" stroke="#0B43A4" stroke-miterlimit="10" stroke-linecap="round" stroke-linejoin="round" stroke-dasharray="4 4"/>
<path d="M117.85 421.57C84.7 421.64 84.01 471.09 126.19 471C168.37 470.91 721.76 469.77 747.85 469.72C773.94 469.67 776.7 428.95 744.44 429.02C680.24 429.15 678.11 398.53 713.75 398.46" stroke="#C8DBFB" stroke-miterlimit="10" stroke-linecap="round" stroke-linejoin="round" stroke-dasharray="4 4"/>
<path d="M125.61 420.19C126.37 424.65 123.37 428.88 118.91 429.64C114.45 430.4 110.22 427.4 109.46 422.94C108.7 418.48 111.7 414.25 116.16 413.49C120.62 412.73 124.85 415.73 125.61 420.19Z" fill="#5193F4"/>
<path d="M729.66 398.68C730.42 403.14 727.42 407.37 722.96 408.13C718.5 408.89 714.27 405.89 713.51 401.43C712.75 396.97 715.75 392.74 720.21 391.98C724.66 391.22 728.9 394.22 729.66 398.68Z" fill="#0B43A4"/>
<path d="M403.41 38.21L397.29 23.25L456.38 0.809999L403.41 38.21Z" fill="#0B43A4"/>
<path d="M406.39 28.99L456.38 0.809999L421.58 36.15L406.39 28.99Z" fill="#5193F4"/>
<path d="M383.76 17.16L456.38 0.809999L397.29 23.25L383.76 17.16Z" fill="#5193F4"/>
<path d="M406.39 28.99L403.41 38.21L412.43 31.84L406.39 28.99Z" fill="#21356B"/>
<path d="M396.47 36.21C381.04 33.6 360.1 49.2 369.11 65.45C372.18 70.98 387.99 68.58 386.82 62.47C386.26 59.54 382.67 58.3 379.71 58.64C362.47 60.62 363.51 75.12 362.55 78.75C346.43 139.46 386.64 206.2 456.38 248.24" stroke="#C8DBFB" stroke-width="2" stroke-miterlimit="10" stroke-linecap="round" stroke-linejoin="round" stroke-dasharray="4 4"/>
<path d="M232.38 574.51C232.38 576.14 214.98 577.47 193.5 577.47C172.02 577.47 154.62 576.15 154.62 574.51C154.62 572.88 172.02 571.55 193.5 571.55C214.98 571.55 232.38 572.88 232.38 574.51Z" fill="#D8D8D8"/>
<path d="M184.01 519.53C193.64 513.4 181.31 494.65 158.91 492.83C158.91 492.83 156.52 502.7 158.71 511.47C160.59 518.96 170.53 528.11 184.01 519.53Z" fill="url(#paint0_linear_53_1867)"/>
<path d="M196.92 521.03C208.12 518.85 203.52 496.89 183.34 487C183.34 487 177.5 495.3 176.34 504.27C175.34 511.92 181.24 524.08 196.92 521.03Z" fill="url(#paint1_linear_53_1867)"/>
<path d="M204.75 522.53C214.7 525.31 219.88 505.68 207.57 489.48C207.57 489.48 199.48 493.83 194.89 500.61C190.98 506.4 190.82 518.63 204.75 522.53Z" fill="url(#paint2_linear_53_1867)"/>
<path d="M209.08 520.02C216.02 526.18 227.94 512.37 224.37 494.44C224.37 494.44 216.12 494.77 209.75 498.44C204.31 501.57 199.36 511.39 209.08 520.02Z" fill="url(#paint3_linear_53_1867)"/>
<path d="M229.13 473.8C267.24 458.85 236.76 384.36 159.13 362.54C159.13 362.54 143.92 395.63 145.61 428.03C147.07 455.67 175.77 494.73 229.13 473.8Z" fill="url(#paint4_linear_53_1867)"/>
<path d="M166.88 371.95C173.98 377.08 180 383.43 184.63 390.67C185.95 392.33 186.97 394.24 188.09 396.06C189.14 397.92 190.39 399.64 191.26 401.6C192.15 403.54 193.11 405.44 194.05 407.35L195.45 410.2L196.57 413.2C199.72 421.1 202.21 429.27 204.09 437.58C204.88 441.79 205.8 445.96 206.66 450.14L208.17 462.93C208.42 465.06 208.84 467.17 208.95 469.32L209.28 475.79C209.51 480.1 209.68 484.41 209.98 488.73C209.86 497.4 209.97 506.08 209.72 514.8C209.49 519.16 209.16 523.51 209 527.89L208.74 534.46L208.61 537.75L208.29 541.03L207.24 554.2L206.72 560.81L206.39 567.48L207.01 567.61L211.6 541.52L212.17 538.26L212.53 534.97L213.26 528.38L214.71 515.21L215.06 511.91L215.19 508.6L215.45 501.98L215.97 488.73L215.47 475.47L215.22 468.84C215.13 466.63 214.73 464.45 214.5 462.25L212.78 449.09L209.91 436.13C207.64 427.59 204.91 419.12 201.13 411.11L199.8 408.07L198.18 405.17L194.93 399.38C193.89 397.43 192.45 395.71 191.23 393.87C189.94 392.07 188.76 390.18 187.24 388.56C181.7 381.66 175.06 375.53 167.13 371.38L166.88 371.95Z" fill="url(#paint5_linear_53_1867)"/>
<path d="M205.07 437.25C176.06 425.87 199.26 369.17 258.36 352.56C258.36 352.56 269.94 377.75 268.65 402.41C267.54 423.45 245.69 453.19 205.07 437.25Z" fill="url(#paint6_linear_53_1867)"/>
<path d="M252.16 359.35C246.15 366.29 241.32 374.09 236.49 381.89C234.23 385.88 232 389.88 229.99 394L226.89 400.14L224.02 406.4C216.42 423.12 210.73 440.66 206.23 458.46C205.21 462.94 204.34 467.44 203.38 471.93L202 478.67L200.96 485.47L199.05 499.09C198.59 503.65 198.26 508.23 197.95 512.79L197.46 519.64C197.36 521.92 197.35 524.22 197.29 526.5L197.04 540.21C196.99 544.78 197.49 549.35 197.69 553.9C197.92 558.46 198.26 563.01 198.67 567.54L199.15 567.53C199.32 558.46 199.18 549.38 199.59 540.32L200.45 526.74C200.61 524.48 200.71 522.21 200.91 519.95L201.69 513.19L203.25 499.67L205.46 486.25L206.58 479.54L208 472.89C208.98 468.46 209.88 464.02 210.94 459.61C215.25 441.99 220.72 424.66 227.51 407.84C234.37 391.08 242.3 374.62 252.54 359.66L252.16 359.35Z" fill="url(#paint7_linear_53_1867)"/>
<path d="M189.12 404.15C243.9 387.36 209.32 280.13 103.31 241.39C103.31 241.39 78.54 285.95 77.45 331.34C76.52 370.08 112.41 427.66 189.12 404.15Z" fill="url(#paint8_linear_53_1867)"/>
<path d="M113.04 255.2C115.06 257.99 116.97 260.85 118.78 263.79C120.7 266.63 122.48 269.57 124.25 272.51C126.07 275.41 127.74 278.4 129.38 281.42C131 284.44 132.77 287.35 134.22 290.46C137.33 296.55 140.59 302.53 143.31 308.79C144.71 311.9 146.2 314.96 147.66 318.03L151.6 327.45L155.52 336.86L159.06 346.42L162.61 355.97C163.81 359.15 164.67 362.44 165.72 365.67C166.7 368.92 167.8 372.14 168.84 375.36L170.42 380.2C170.91 381.83 171.3 383.48 171.74 385.12L176.92 404.82C178.49 411.42 179.79 418.09 181.25 424.73C181.93 428.06 182.74 431.36 183.31 434.71C183.81 438.07 184.29 441.43 184.86 444.79C185.91 451.51 187.16 458.21 188.07 464.95C188.69 471.73 189.45 478.5 190.23 485.28L191.38 495.46L191.92 505.69L193.19 526.2C194.02 539.91 193.49 553.64 194.29 567.52L195.05 567.59L196.26 546.93L196.86 536.6C197.07 533.16 197.31 529.71 197.19 526.26L197.03 505.56L196.94 495.21L196.18 484.89L194.66 464.24C193.91 457.38 192.81 450.56 191.91 443.72L190.49 433.46C189.95 430.05 189.15 426.69 188.49 423.3C187.08 416.54 185.81 409.75 184.28 403.02C177.59 376.22 168.59 350.01 157.01 324.94C145.33 299.97 131.49 275.8 113.57 254.69L113.04 255.2Z" fill="url(#paint9_linear_53_1867)"/>
<path d="M157.98 454.02C191.47 429.78 142.86 364.63 61.43 362.89C61.43 362.89 54.91 399.1 64.75 430.34C73.14 457 111.08 487.96 157.98 454.02Z" fill="url(#paint10_linear_53_1867)"/>
<path d="M71.3099 370.06C79.5499 375.62 87.2399 381.86 94.3299 388.69L99.7199 393.71L104.85 399C108.34 402.44 111.47 406.24 114.66 409.96C127.27 424.96 138.43 441.08 148.19 458.05L155.24 470.94C156.47 473.06 157.52 475.27 158.52 477.51L161.64 484.17L164.83 490.81C165.35 491.92 165.92 493.02 166.4 494.14L167.76 497.56C169.54 502.14 171.46 506.67 173.39 511.21C175.45 515.7 176.92 520.41 178.55 525.07L183.42 539.09C186.55 548.49 189.04 558.09 192.32 567.58L192.86 567.48C190.63 557.78 188.6 548.02 186.21 538.35L181.97 524.02C180.54 519.25 179.27 514.42 177.4 509.8L172.2 495.78L170.9 492.28C170.43 491.12 169.89 490 169.39 488.86L166.32 482.04L163.25 475.22C162.26 472.93 161.21 470.67 159.98 468.5L152.93 455.31C142.87 438.11 131.31 421.73 117.8 407.05C114.39 403.42 111.04 399.72 107.33 396.38L101.89 391.25L96.1799 386.42C88.4699 380.11 80.3999 374.18 71.5399 369.52L71.3099 370.06Z" fill="url(#paint11_linear_53_1867)"/>
<path d="M148.11 353.38C144.11 350.32 139.74 348.22 135.27 346.5C133.05 345.56 130.75 344.96 128.46 344.24C126.16 343.62 123.81 343.15 121.48 342.63C116.76 341.88 111.97 341.34 107.12 341.52C102.28 341.68 97.37 342.33 92.7 344.2L92.71 344.71C102.07 344.62 111.39 345.89 120.58 347.61C129.8 349.23 138.95 351.3 147.96 353.87L148.11 353.38Z" fill="url(#paint12_linear_53_1867)"/>
<path d="M139.36 322.66C136.52 319.41 133.21 317.03 129.74 315C128.03 313.91 126.2 313.14 124.4 312.24C122.57 311.44 120.68 310.78 118.81 310.08C114.97 308.93 111.05 307.97 106.99 307.67C102.94 307.35 98.75 307.48 94.64 308.79L94.59 309.29C102.32 310.29 109.86 312.41 117.25 314.88C124.68 317.25 132 319.98 139.15 323.11L139.36 322.66Z" fill="url(#paint13_linear_53_1867)"/>
<path d="M177.79 346.76C179.46 344.23 180.57 341.87 181.52 339.55C182.46 337.24 183.31 335.02 184.04 332.87C184.31 331.74 184.78 330.74 185.12 329.68L185.66 328.11C185.88 327.62 186.08 327.13 186.25 326.58C187.1 324.55 187.97 322.54 189.67 320.01L189.5 319.58C187.02 320.54 184.9 322.27 183.3 324.37C181.65 326.45 180.56 328.89 179.66 331.34C178.02 336.32 177.26 341.55 177.32 346.76H177.79Z" fill="url(#paint14_linear_53_1867)"/>
<path d="M159.77 313.27C160.58 311.09 160.99 309.12 161.28 307.2C161.6 305.29 161.73 303.45 161.94 301.68C162.03 299.89 162.21 298.19 162.39 296.51C162.63 294.82 162.83 293.16 163.68 290.99L163.48 290.7C161.8 291.88 160.61 293.62 159.83 295.49C159.03 297.36 158.65 299.37 158.45 301.38C158.17 305.41 158.6 309.43 159.43 313.35L159.77 313.27Z" fill="url(#paint15_linear_53_1867)"/>
<path d="M166.81 574.51H213.9C216.24 574.51 218.21 572.76 218.49 570.43L224.98 515.84C225.31 513.09 223.16 510.68 220.4 510.68H160.33C157.56 510.68 155.41 513.1 155.74 515.84L162.23 570.43C162.5 572.76 164.47 574.51 166.81 574.51Z" fill="url(#paint16_linear_53_1867)"/>
<path d="M154.23 521.51H226.48C227.99 521.51 229.26 520.41 229.49 518.92L230.91 509.64C231.19 507.8 229.76 506.13 227.9 506.13H152.81C150.94 506.13 149.52 507.79 149.8 509.64L151.22 518.92C151.45 520.41 152.73 521.51 154.23 521.51Z" fill="url(#paint17_linear_53_1867)"/>
<path opacity="0.2" d="M761.98 539.85L224.83 540.96C217.66 540.97 211.84 535.18 211.83 528.01L211.1 172.16C211.09 164.99 216.88 159.17 224.05 159.16L761.2 158.05C768.37 158.04 774.19 163.83 774.2 171L774.93 526.85C774.95 534.02 769.15 539.84 761.98 539.85Z" fill="#5275A0"/>
<path d="M751.47 533.05L214.32 534.16C207.15 534.17 201.33 528.38 201.32 521.21L200.59 165.36C200.58 158.19 206.37 152.37 213.54 152.36L750.69 151.25C757.86 151.24 763.68 157.03 763.69 164.2L764.42 520.05C764.43 527.22 758.63 533.04 751.47 533.05Z" fill="white"/>
<path d="M749.8 151.25L214.95 152.35C207.15 152.37 200.84 158.7 200.85 166.5L200.88 178.78L763.98 177.62L763.95 165.34C763.94 157.55 757.61 151.24 749.8 151.25Z" fill="#21356B"/>
<path d="M215.6 534.16L296.41 533.99L295.68 178.6L200.74 178.8L201.44 520.09C201.46 527.87 207.8 534.18 215.6 534.16Z" fill="#C8DBFB"/>
<path d="M750.84 153.25C756.88 153.25 761.8 158.16 761.81 164.2L762.54 520.05C762.55 526.1 757.64 531.04 751.59 531.05L214.42 532.16C208.38 532.16 203.46 527.25 203.44 521.21L202.71 165.36C202.7 159.31 207.61 154.37 213.66 154.36L750.8 153.25H750.84ZM750.84 151.25C750.83 151.25 750.82 151.25 750.81 151.25L213.66 152.36C206.49 152.37 200.7 158.2 200.71 165.36L201.44 521.21C201.45 528.37 207.26 534.16 214.42 534.16C214.43 534.16 214.44 534.16 214.45 534.16L751.6 533.05C758.77 533.04 764.56 527.21 764.55 520.05L763.82 164.2C763.8 157.04 757.99 151.25 750.84 151.25Z" fill="#0056EC"/>
<path d="M284.97 506.99L218.31 507.13C216.77 507.13 215.52 505.89 215.52 504.35L215.51 499.36C215.51 497.82 216.75 496.57 218.29 496.57L284.94 496.43C286.48 496.43 287.73 497.67 287.73 499.21L287.74 504.2C287.75 505.74 286.51 506.99 284.97 506.99Z" fill="white"/>
<path d="M279.3 265.88L218.26 266.01C215.44 266.02 213.15 263.73 213.14 260.91L213.01 199.87C213 197.05 215.29 194.76 218.11 194.75L279.15 194.62C281.97 194.61 284.26 196.9 284.27 199.72L284.4 260.76C284.4 263.58 282.12 265.87 279.3 265.88Z" fill="white"/>
<path d="M505.14 424.71L314.69 425.1C312.68 425.1 311.05 423.48 311.04 421.47L311.03 414.95C311.03 412.94 312.65 411.31 314.66 411.3L505.11 410.91C507.12 410.91 508.75 412.53 508.76 414.54L508.77 421.06C508.78 423.08 507.15 424.71 505.14 424.71Z" fill="#C8DBFB"/>
<path d="M494.46 214.24L342.76 214.55C340.75 214.55 339.12 212.93 339.11 210.92L339.1 204.4C339.1 202.39 340.72 200.76 342.73 200.75L494.43 200.44C496.44 200.44 498.07 202.06 498.08 204.07L498.09 210.59C498.1 212.6 496.47 214.24 494.46 214.24Z" fill="#C8DBFB"/>
<path d="M725.23 361.88L524.87 362.29C522.86 362.29 521.23 360.67 521.22 358.66L521.21 352.14C521.21 350.13 522.83 348.5 524.84 348.49L725.19 348.08C727.2 348.08 728.83 349.7 728.84 351.71L728.85 358.23C728.87 360.24 727.24 361.87 725.23 361.88Z" fill="#C8DBFB"/>
<path d="M505.2 453.25L314.75 453.64C312.74 453.64 311.11 452.02 311.1 450.01L311.09 443.49C311.09 441.48 312.71 439.85 314.72 439.84L505.17 439.45C507.18 439.45 508.81 441.07 508.82 443.08L508.83 449.6C508.83 451.61 507.21 453.24 505.2 453.25Z" fill="#C8DBFB"/>
<path d="M505.26 481.78L314.81 482.17C312.8 482.17 311.17 480.55 311.16 478.54L311.15 472.02C311.15 470.01 312.77 468.38 314.78 468.37L505.23 467.98C507.24 467.98 508.87 469.6 508.88 471.61L508.89 478.13C508.89 480.14 507.27 481.78 505.26 481.78Z" fill="#C8DBFB"/>
<path d="M723.15 500.39L527.54 500.79C524.22 500.8 521.52 498.11 521.52 494.79L521.34 405.39C521.33 402.07 524.02 399.37 527.34 399.37L722.95 398.97C726.27 398.96 728.97 401.65 728.97 404.97L729.15 494.37C729.15 497.68 726.47 500.38 723.15 500.39Z" fill="#C8DBFB"/>
<path d="M231.74 165.3C231.75 167.81 229.71 169.85 227.2 169.86C224.69 169.87 222.65 167.83 222.64 165.32C222.63 162.81 224.67 160.77 227.18 160.76C229.7 160.75 231.74 162.78 231.74 165.3Z" fill="#C8DBFB"/>
<path d="M246.46 169.81C248.973 169.81 251.01 167.773 251.01 165.26C251.01 162.747 248.973 160.71 246.46 160.71C243.947 160.71 241.91 162.747 241.91 165.26C241.91 167.773 243.947 169.81 246.46 169.81Z" fill="#C8DBFB"/>
<path d="M270.27 165.22C270.28 167.73 268.24 169.77 265.73 169.78C263.22 169.79 261.18 167.75 261.17 165.24C261.16 162.73 263.2 160.69 265.71 160.68C268.23 160.67 270.27 162.7 270.27 165.22Z" fill="#C8DBFB"/>
<path d="M331.977 209.028C332.702 201.796 327.427 195.346 320.195 194.621C312.963 193.897 306.513 199.172 305.789 206.404C305.064 213.635 310.339 220.085 317.571 220.81C324.803 221.535 331.253 216.259 331.977 209.028Z" fill="#C8DBFB"/>
<path d="M280.07 277.01L219.63 277.13C218.87 277.13 218.26 276.52 218.25 275.76V273.3C218.25 272.54 218.86 271.93 219.62 271.92L280.06 271.8C280.82 271.8 281.43 272.41 281.44 273.17L281.45 275.63C281.44 276.39 280.83 277.01 280.07 277.01Z" fill="white"/>
<path d="M280.09 288.14L219.65 288.26C218.89 288.26 218.28 287.65 218.27 286.89L218.26 284.43C218.26 283.67 218.87 283.06 219.63 283.05L280.07 282.93C280.83 282.93 281.44 283.54 281.45 284.3V286.76C281.46 287.52 280.85 288.13 280.09 288.14Z" fill="white"/>
<path d="M345.75 311.67L329.27 311.84L329.39 380.89L315.17 380.92C310.15 380.93 306.07 376.87 306.06 371.85L305.8 244.16C305.79 239.09 309.89 234.97 314.96 234.96L345.57 234.88L345.75 311.67Z" fill="#C8DBFB"/>
<path d="M457.37 234.66V235.66C460.13 235.66 462.38 237.9 462.38 240.66L462.66 374.6C462.67 377.36 460.42 379.62 457.66 379.62L312.08 379.92C309.32 379.92 307.07 377.68 307.07 374.92L306.79 240.98C306.79 239.64 307.31 238.38 308.25 237.43C309.19 236.48 310.45 235.96 311.79 235.95L457.37 235.65V234.66ZM457.37 234.66H457.36L311.79 234.96C308.47 234.97 305.78 237.66 305.79 240.98L306.07 374.92C306.08 378.24 308.77 380.92 312.08 380.92H312.09L457.66 380.62C460.98 380.61 463.67 377.92 463.66 374.6L463.38 240.66C463.38 237.34 460.69 234.66 457.37 234.66Z" fill="#C8DBFB"/>
<path d="M684.59 338.18L493.79 295.06C490.55 294.33 488.52 291.11 489.25 287.87L511.76 188.28C512.49 185.04 515.71 183.01 518.95 183.74L709.75 226.86C712.99 227.59 715.02 230.81 714.29 234.05L691.78 333.64C691.05 336.88 687.83 338.91 684.59 338.18Z" fill="#C8DBFB"/>
<path d="M328.55 582.96L303.14 583.01L296.92 550.64L334.63 550.56L328.55 582.96Z" fill="#21356B"/>
<path d="M303.96 550.63C303.97 553.27 303.46 557.71 305.22 557.77C306.98 557.84 306.25 553.56 308.26 553.68C309.54 553.75 307.66 567.74 312.5 568.08C315.83 568.31 315.22 561.22 315.56 556.78C315.79 553.78 319.64 554.36 319.67 556.35C319.71 558.57 319.56 560.06 319.67 562.59C319.85 566.81 326.35 565.69 326.11 560.05C325.88 554.4 326.1 550.59 326.1 550.59L303.96 550.63Z" fill="#C8DBFB"/>
<path d="M297.87 570.18C297.35 570.18 296.85 570.13 296.37 570.02C294.5 569.61 293.19 568.62 292.46 567.09C289.87 561.6 296.69 551.31 296.96 550.85L297.32 552.7C297.26 552.81 291.33 561.65 293.66 566.59C294.21 567.76 295.2 568.49 296.67 568.82C297.08 568.91 297.5 568.95 297.95 568.95C307.1 568.93 322.75 551.88 322.92 551.68C323.56 550.91 324.76 551.64 324.33 552.28C323.6 553.11 307.71 570.16 297.87 570.18Z" fill="#0C2340"/>
<path opacity="0.2" d="M564.88 127.49C528.77 126.11 479.05 152.82 496.69 218.12C496.31 223.64 499.61 227.58 503.13 226.5C506.65 225.42 503.55 214.96 503.55 214.96C509.56 166.41 520.81 158.01 539.9 158.19L584.69 158.1C595.76 159.73 615.88 167.47 618.9 206.34L630.05 208.4C630.92 180.31 624.12 129.76 564.88 127.49Z" fill="#5275A0"/>
<path d="M564.88 121.8C528.77 120.42 479.05 147.13 496.69 212.43L503.55 209.27C509.56 160.72 520.81 152.32 539.9 152.5L584.69 152.41C595.76 154.04 616.42 163.86 619.44 202.73L630.05 202.71C630.92 174.63 624.12 124.07 564.88 121.8Z" fill="#EF832B"/>
<path d="M557.49 122.87L552.13 134.66C552.13 134.66 552.77 141.3 559.29 141.16C565.81 141.02 566.68 138.01 566.68 138.01L567.53 124.48L557.49 122.87Z" fill="#FFB9A3"/>
<path d="M585.06 113.03C578.95 123.84 576.24 127.2 568.24 128.83C557.89 130.93 546.28 123.95 551.67 106.74C556.07 92.71 562.73 94.87 569.26 95.4C575.79 95.93 591.67 101.36 585.06 113.03Z" fill="#FFB9A3"/>
<path d="M560.76 104.5C559.14 103.65 557.04 104.37 555.78 105.7C554.48 107.07 553.86 109.11 554.41 110.91C551.91 110.95 549.71 113.4 549.95 115.89C548.24 111.9 549.16 107.75 548.83 103.67C548.49 99.59 548.94 95.15 551.59 92.02C552.67 90.74 554.07 89.75 555.56 88.96C561.19 85.97 568.27 85.87 573.98 88.7C575.16 89.29 578.13 91.15 582.27 90.15C590.16 88.24 594.77 93.58 590.03 98.57C591.55 99.12 593.22 99.8 593.91 101.26C594.09 101.63 594.18 102.1 593.94 102.44C593.78 102.68 593.49 102.8 593.22 102.89C591.89 103.34 590.45 103.45 589.07 103.22C589.6 103.67 592.53 103.85 593.41 105.55C595.76 110.08 586.44 107.79 585.02 107.34C586.64 107.64 590.9 111.04 589.53 113.37C589.26 113.83 583.52 117.18 577.48 110.16C576.08 108.53 574.32 107.02 572.24 106.47C570.61 106.03 568.9 106.64 567.32 107.23C566.17 107.66 563.22 109.46 562.38 108.39C561.45 107.25 562.64 105.44 560.76 104.5Z" fill="#0C2340"/>
<path d="M620.58 202.73C618.98 208.24 617.36 208.79 619.3 209.66C621.24 210.54 622.81 207.45 622.81 207.45L631.77 209.23C631.77 209.23 629.75 203.41 628.34 202.71C626.92 202.01 620.58 202.73 620.58 202.73Z" fill="#FFB9A3"/>
<path d="M503.54 209.27C504.71 212.18 505.03 212.2 506.66 215.69C509.78 222.37 502.48 232.93 497.95 221.4C496.71 218.24 496.69 212.43 496.69 212.43L503.54 209.27Z" fill="#FFB9A3"/>
<path d="M573.52 89.43C577.06 89.77 580.41 88.46 583.9 88.11C586.85 87.81 590.3 88.34 592.11 90.96C592.35 91.31 592.92 91 592.69 90.62C591.05 87.94 587.81 87.1 584.85 87.3C581.03 87.55 577.39 89.16 573.53 88.86C573.15 88.83 573.15 89.4 573.52 89.43Z" fill="#0C2340"/>
<path d="M576.05 86.56C572.22 87.63 568.35 85.56 564.48 85.95C560.86 86.31 557.52 88.13 554.78 90.45C554.41 90.77 554.91 91.42 555.31 91.13C558.23 89 561.5 87.02 565.21 86.88C568.91 86.74 572.61 88.57 576.26 87.28C576.7 87.13 576.52 86.43 576.05 86.56Z" fill="#0C2340"/>
<path d="M552.25 92.15C550.9 92.98 549.63 94 548.8 95.38C547.96 96.78 547.55 98.42 547.43 100.04C547.29 101.88 547.55 103.71 547.89 105.52C548.12 106.75 548.18 108.89 549.61 109.37C549.99 109.5 550.21 108.93 549.88 108.73C549.34 108.41 549.18 107.77 549.05 107.19C548.87 106.41 548.71 105.62 548.57 104.83C548.28 103.22 548.08 101.57 548.19 99.93C548.29 98.46 548.66 97 549.39 95.72C550.14 94.4 551.24 93.4 552.48 92.55C552.74 92.38 552.51 91.99 552.25 92.15Z" fill="#0C2340"/>
<path d="M597.28 102.15C596.5 100.78 595.26 99.72 593.81 99.12C592.38 98.53 590.65 98.33 589.21 98.96C588.95 99.08 589.07 99.55 589.36 99.51C590.78 99.33 592.15 99.31 593.51 99.8C594.87 100.29 596.05 101.18 596.83 102.4C597 102.69 597.44 102.44 597.28 102.15Z" fill="#0C2340"/>
<path d="M398.8 374.37C417.73 381.32 434.18 403.05 430.4 418.84C426.14 436.67 413.84 444.36 413.84 444.36L409.96 437.2C409.96 437.2 419.8 421.82 418.94 414.56C417.57 402.93 402.89 395.16 402.89 395.16L398.8 374.37Z" fill="#0B43A4"/>
<path d="M352.19 575.6C352.19 575.6 340.56 580.3 337.66 582.95L360.69 582.9L360.67 575.58L352.19 575.6Z" fill="#0C2340"/>
<path d="M403.08 575.16C403.08 575.16 406.38 578.99 406.99 582.82L391.27 582.85C391.54 580.2 392.67 577.66 394.2 575.18L403.08 575.16Z" fill="#0C2340"/>
<path d="M404.04 575.5L393.31 575.52C393.52 562.88 390.92 519.8 388.4 487.6C386.92 468.71 385.45 453.54 384.6 450.47L390.35 449.2L412.04 444.38C415.75 461.33 407.18 539.21 404.04 575.5Z" fill="#047F76"/>
<path d="M364.6 449.78C356.23 462.96 354.07 558.22 350.56 575.87L360.73 576.45C360.73 576.45 372.42 516.39 397.31 448.88L364.6 449.78Z" fill="#009790"/>
<path opacity="0.2" d="M401.61 448.87C396.7 462.21 392.29 475.26 388.4 487.59C386.92 468.7 385.45 453.53 384.6 450.46L390.35 449.19L401.61 448.87Z" fill="#5275A0"/>
<path d="M364.6 449.78C356.23 462.96 354.07 558.22 350.56 575.87L360.73 576.45C360.73 576.45 372.42 516.39 397.31 448.88L364.6 449.78Z" fill="#009790"/>
<path d="M371 343.44C371 343.44 364.49 368.26 380.76 368.23L379.79 374.57L392.15 375.92L389.48 367.08C389.48 367.08 391.92 351.47 392.09 348.66C392.39 343.4 377.65 334.12 371 343.44Z" fill="#FFB9A3"/>
<path d="M330.751 315.616L325.961 315.625L326.001 335.885L330.791 335.876L330.751 315.616Z" fill="#0C2340"/>
<path d="M343.66 315.59L313.06 315.65C311.98 315.65 311.1 314.78 311.1 313.7L311.09 309.91C311.09 308.83 311.96 307.95 313.04 307.95L343.64 307.89C344.72 307.89 345.6 308.76 345.6 309.84L345.61 313.63C345.61 314.71 344.74 315.59 343.66 315.59Z" fill="#21356B"/>
<path d="M324.67 341.17C324.54 336.57 320.75 337.78 322.84 330.28C324.13 325.64 333.7 331.02 332.51 334.24C331.32 337.46 329.94 342.54 329.94 342.54L324.67 341.17Z" fill="#FFB9A3"/>
<path d="M380.87 373.11C356.54 374.72 354.94 382.92 344.05 381.64C327.93 379.74 330.75 349.81 332.75 339.08L323.12 339.1C323.12 339.1 305.77 407.28 360.57 394.68C358.47 406.62 372.09 426.13 358.88 449.8C379.69 455.45 399.1 456.84 415.72 449.69C412.81 445.77 421.69 406.15 404.31 377.64C400.92 372.06 382.66 373 380.87 373.11Z" fill="#21356B"/>
<path d="M380.87 373.11C356.54 374.72 354.94 382.92 344.05 381.64C327.93 379.74 330.75 349.81 332.75 339.08L323.12 339.1C323.12 339.1 305.77 407.28 360.57 394.68C358.47 406.62 372.09 426.13 358.88 449.8C379.69 455.45 399.1 456.84 415.72 449.69C412.81 445.77 421.69 406.15 404.31 377.64C400.92 372.06 382.66 373 380.87 373.11Z" fill="#21356B"/>
<path d="M377.52 348.2C379.11 348.6 380.95 348.91 381.8 350.26C382.35 351.13 382.31 352.22 382.26 353.24C382.55 352.17 383.73 351.4 384.87 351.54C386.01 351.67 386.97 352.69 386.99 353.79C387 354.31 386.83 354.81 386.64 355.3C386.17 356.51 385.56 357.66 384.83 358.75C386.82 359.48 388.48 365.3 389.48 367.1C392.82 366.26 400.26 363.39 400.91 351.55C401.21 346.04 399.53 339.43 393.55 335.76C389.33 333.17 382.31 333.13 377.48 334.37C373.56 335.37 367.3 339.29 370.22 343.87C371.68 346.17 374.9 347.53 377.52 348.2Z" fill="#EF832B"/>
<path d="M398.36 340.66C400.63 339.91 403.5 340.31 404.86 342.2C405.92 343.68 405.83 345.61 406.17 347.38C406.34 348.23 406.64 349.1 407.3 349.68C408.09 350.38 409.23 350.55 410.3 350.61C412.92 350.75 415.57 350.42 418.15 350.86C420.73 351.3 423.37 352.76 424.11 355.17C424.52 356.5 424.29 357.97 424.78 359.28C425.51 361.25 427.6 362.36 429.43 363.5C433.31 365.93 436.6 369.21 438.99 373.01C440.5 375.42 441.66 378.09 441.85 380.9C442.03 383.71 444.06 387.41 443.52 390.17C442.94 393.15 440.01 397.18 434.22 399.04C424.22 402.26 421.05 403.65 411.47 397.96C410.31 397.27 408.06 394.94 407.01 394.1C406.19 393.44 405.67 392.5 405.38 391.51C404.58 388.76 405.5 385.8 406.94 383.29C408.38 380.79 410.31 378.58 411.77 376.09C412.65 374.59 413.37 372.93 413.28 371.22C413.25 370.58 413.09 369.91 412.62 369.45C412.22 369.05 411.64 368.86 411.07 368.75C408.97 368.34 406.65 368.77 404.74 367.83C402.89 366.91 401.87 364.67 402.43 362.74C402.81 361.45 403.78 360.37 404.06 359.06C404.46 357.18 403.28 355.24 401.64 354.13C400 353.03 397.98 352.6 396 352.27C395.03 352.11 394.01 351.95 393.21 351.38C392.23 350.68 391.78 349.45 391.8 348.28C391.85 344.59 394.86 341.83 398.36 340.66Z" fill="#EF832B"/>
<path d="M396.66 350.51C399.7 350.81 402.11 353.75 401.69 356.79C401.26 359.96 398.73 362.4 398.38 365.62C398.23 366.96 398.5 368.33 399.4 369.37C400.25 370.36 401.53 370.87 402.79 371.08C404.13 371.3 405.48 371.17 406.84 371.17C408.18 371.17 409.72 371.28 410.7 372.33C411.94 373.66 411.58 375.74 410.99 377.28C410.32 379.02 409.36 380.59 409.25 382.5C409.22 382.93 409.86 382.91 409.91 382.5C410.28 379.34 413.24 376.37 411.98 373.05C410.9 370.2 407.54 370.45 405.04 370.51C403.52 370.55 401.88 370.41 400.6 369.52C399.17 368.52 398.84 366.77 399.14 365.14C399.73 361.95 402.41 359.39 402.33 356.04C402.26 353.01 399.68 350.37 396.67 350.16C396.42 350.13 396.43 350.49 396.66 350.51Z" fill="#EF832B"/>
<path d="M371.71 335.81C375.08 333.84 378.77 332.57 382.69 332.46C386.4 332.36 390.1 333.3 393.33 335.12C395.15 336.14 396.82 337.41 398.31 338.87C398.6 339.15 399.01 338.73 398.75 338.43C393.57 332.59 385.08 330.37 377.64 332.56C375.46 333.2 373.38 334.17 371.57 335.56C371.43 335.67 371.55 335.9 371.71 335.81Z" fill="#EF832B"/>
<path d="M683.57 365.02L679.55 373.11L689.38 377.13L690.43 367.82L683.57 365.02Z" fill="#FFB9A3"/>
<path d="M689.51 338.69C667.21 348.4 676.35 371.92 689.92 369.16C696.53 367.82 699.87 346.54 699.87 346.54L689.51 338.69Z" fill="#FFB9A3"/>
<path d="M696.92 335.34C696.19 333.97 695.49 332.52 694.28 331.55C693.07 330.58 691.16 330.27 690.02 331.33C688.52 332.72 689.4 335.34 690.92 336.71C689.61 336.87 688.06 335.97 687.1 336.86C686.37 337.54 686.62 338.75 687.04 339.66C688.02 341.79 689.63 343.63 691.61 344.9C690.48 345.54 689.17 346.78 689.85 347.89C690.04 348.2 690.35 348.41 690.54 348.72C690.97 349.44 690.55 350.36 690.12 351.08C689.42 352.24 688.66 353.37 687.85 354.46C688.62 353.41 690.48 353.84 691.05 355.01C691.61 356.18 691.12 357.63 690.26 358.6C689.78 359.14 689.16 359.59 688.46 359.75C687.85 359.89 685.15 368.25 687.25 369.88C689.86 371.9 698.72 370.15 700 367.86C701.28 369.25 703.16 370.3 705.01 369.94C706.87 369.57 708.28 367.28 707.28 365.68C709.29 366.42 711.72 365.77 713.09 364.13C714.46 362.49 714.66 359.97 713.57 358.13C714.66 357.8 714.88 356.32 714.6 355.21C714.04 352.97 712.21 351.09 709.99 350.47C711.12 350.49 712.02 349.35 712.07 348.22C712.12 347.09 711.54 346.03 710.83 345.15C708.74 342.57 706.26 341.88 703.16 341.49C700.02 341.1 698.3 337.91 696.92 335.34Z" fill="#4A49CA"/>
<path d="M676.02 574.06C676.02 574.06 662.97 580.32 661.22 582.28C661.22 582.28 686.89 583.43 688.9 582.22C690.91 581.01 684.79 574.04 684.79 574.04L676.02 574.06Z" fill="#0C2340"/>
<path d="M724.56 566.97C724.56 566.97 713.09 575.8 711.78 578.07C711.78 578.07 738.85 574.05 738.85 572.28C738.85 570.51 733.14 565.13 733.14 565.13L724.56 566.97Z" fill="#0C2340"/>
<path d="M688.63 453.09C688.15 455.74 670.28 526.27 721.4 568.55L736.21 565.15C736.21 565.15 718.98 548.99 710.86 519.9C703.18 492.4 709.28 489.7 713.89 474.55C718.99 457.78 715.19 445.61 715.19 445.61L688.63 453.09Z" fill="#D8742A"/>
<path d="M664.2 452.87C656.1 472.23 642.19 538.23 672.51 575.39L687.65 575.36C687.65 575.36 675.72 562.29 674.39 531.96C673.06 501.63 680.77 488.32 686.21 478.31C691.65 468.3 696.68 451.3 696.68 451.3L664.2 452.87Z" fill="#EF832B"/>
<path d="M653.52 332.82C649.5 347 648.17 373.2 668.32 383.76L681.81 380.47C681.81 380.47 657.5 367.72 662.71 335.51L653.52 332.82Z" fill="#0B43A4"/>
<path d="M616.37 325.56L626.84 324.27C626.84 324.27 625.58 368.23 676.35 371.93C715.1 374.76 718.15 447.48 718.15 447.48C705.65 455.89 684.69 458.44 657.82 456.51C657.82 456.51 659.54 404.63 655.27 390.43C655.26 390.42 613.08 377.15 616.37 325.56Z" fill="#21356B"/>
<path d="M603.57 317.58C601.8 319.63 609.2 322.24 616.37 325.56L625.56 324.43C625.56 324.43 625.67 322.59 625.55 320.68C625.43 318.77 624.48 317.68 623.39 319.32C622.3 320.96 617.66 321.52 615.47 320.02C613.27 318.51 605.34 315.53 603.57 317.58Z" fill="#FFB9A3"/>
<path d="M653.52 332.82C650.15 329.51 651.05 329.71 651.05 329.71L661.32 332.03C661.32 332.03 663.58 327.02 665.49 326.88C667.4 326.74 664.05 330.33 664.82 331.66C665.59 332.99 662.71 335.51 662.71 335.51L653.52 332.82Z" fill="#FFB9A3"/>
<path d="M702.74 339.98C705.17 340.41 707.71 340.74 709.52 342.6C710.98 344.1 711.57 346.64 710.26 348.41C709.95 348.83 710.66 349.39 710.99 348.97C712.62 346.94 712.08 344.05 710.46 342.18C708.68 340.11 705.44 339.3 702.81 339.45C702.52 339.47 702.42 339.92 702.74 339.98Z" fill="#4A49CA"/>
<path d="M712.09 359.02C713.53 359.8 714.75 361.23 714.28 362.97C713.79 364.77 712.07 365.82 710.6 366.78C710.24 367.02 710.56 367.57 710.94 367.36C712.72 366.36 714.66 365.07 715.04 362.9C715.38 360.94 714.06 359.33 712.41 358.48C712.05 358.29 711.73 358.83 712.09 359.02Z" fill="#4A49CA"/>
<path d="M688.6 369.73C693.1 372.5 699.97 372.01 703.65 368C703.97 367.65 703.49 367.2 703.14 367.49C701.13 369.11 698.88 370.27 696.29 370.6C693.74 370.93 691.12 370.52 688.82 369.36C688.57 369.23 688.37 369.58 688.6 369.73Z" fill="#4A49CA"/>
<path d="M712.67 343.24C713.92 344.18 714.18 345.92 713.8 347.35C713.36 349.04 712.09 350.47 710.99 351.77C710.76 352.04 711.13 352.42 711.38 352.16C712.79 350.76 714.25 349.23 714.56 347.18C714.79 345.61 714.24 343.83 712.78 343.04C712.65 342.98 712.55 343.16 712.67 343.24Z" fill="#4A49CA"/>
<g opacity="0.67">
<path d="M154.09 615.3C234.773 615.3 300.18 610.899 300.18 605.47C300.18 600.041 234.773 595.64 154.09 595.64C73.4067 595.64 8 600.041 8 605.47C8 610.899 73.4067 615.3 154.09 615.3Z" fill="#4E87C3"/>
</g>
<path d="M211.65 603.7C211.65 603.7 226.62 606.26 242.7 606.26C257.61 606.26 271.99 603.7 271.99 603.7L270.82 601.1C265.68 589.69 246.23 594.13 241.82 582.35C238.14 594.12 217.96 589.69 212.82 601.1L211.65 603.7Z" fill="#ECE8EC"/>
<path d="M238.137 590.953H246.237V515.153H238.137V590.953Z" fill="#ECE8EC"/>
<path d="M240.45 584.74L236.92 577.01L229.18 579.86L231.33 587.81L240.45 584.74Z" fill="#F5D09F"/>
<path d="M240.43 584.62L242.29 590.93L234.11 593.52C234.11 593.52 215.64 601.28 212.2 597.68C210.62 596.03 216.64 594.41 220.5 591.85C224.36 589.29 230.42 585.69 230.42 585.69C230.42 585.69 235.74 585.88 240.43 584.62Z" fill="#151E1C"/>
<path d="M199.56 596.15L198.35 587.74L190.12 588.29L189.94 596.52L199.56 596.15Z" fill="#F5D09F"/>
<path d="M199.58 596.03V602.61L191 602.78C191 602.78 171.09 605 168.8 600.58C167.75 598.55 173.98 598.69 178.41 597.33C182.83 595.97 189.67 594.22 189.67 594.22C189.67 594.22 194.72 595.92 199.58 596.03Z" fill="#151E1C"/>
<path d="M125.15 451.22L136.52 447.45L146.59 450C152.26 448.53 154.14 448.61 165.75 445.62C175.55 443.1 186.8 438.08 186.8 438.08L195.14 424.1C200.54 424.59 211.87 430.48 211.87 430.48C211.87 430.48 196.36 451.58 191.95 453.05C187.53 454.52 157.77 458.15 146.42 456.85C142.85 456.44 135.85 452.66 135.85 452.66L126.88 454.15L119.88 458.87L118.66 457.86L121.44 454.81L125.15 451.22Z" fill="#E9BB88"/>
<path d="M203.74 397.47C203.74 397.47 218.2 399.89 217.95 412.89C217.79 421.36 206.18 437.17 206.18 437.17C206.18 437.17 199.8 428.34 191.95 425.89C191.95 425.89 197.05 410.93 198.61 406.26C200.56 400.38 203.74 397.47 203.74 397.47Z" fill="#FFD970"/>
<path d="M227.846 528.403H256.546V512.953H227.846V528.403Z" fill="#ECE8EC"/>
<path d="M231.69 452.84C230.28 434.15 229.27 415.42 228.65 396.69C246.39 388.79 285.96 392.32 289.66 404.04C293.59 416.47 278.62 451.87 278.62 465.12C278.62 478.37 283.77 487.93 284.51 493.82C285.25 499.71 281.57 504.12 281.57 504.12H236.2C235.05 487 232.98 469.91 231.69 452.84Z" fill="#ECE8EC"/>
<path d="M231.69 452.84C230.22 433.36 229.19 413.84 228.57 394.32C248.07 389.76 279.05 393.73 282.3 404.04C286.23 416.47 271.26 451.87 271.26 465.12C271.26 478.37 276.41 487.93 277.15 493.82C277.89 499.71 274.21 504.12 274.21 504.12H236.2C235.05 487 232.98 469.91 231.69 452.84Z" fill="#576D8D"/>
<path d="M196.2 518.1H273.61C278.01 518.1 281.57 514.54 281.57 510.14V504.12H196.2V518.1Z" fill="#576D8D"/>
<path d="M212.39 471.98C212.39 471.98 171.55 496.24 169.12 506.26C166.22 518.21 185.81 589 185.81 589C190.43 592.11 198.99 591.06 202.14 588.23C202.14 588.23 186.38 527.66 188.1 523.61C192.3 513.7 228.08 501.9 239.37 491.11C250.65 480.32 251.64 470.01 251.64 470.01L212.39 471.98Z" fill="#251F3E"/>
<path d="M259.08 461.13C259.08 461.13 272.99 490.13 260.48 501.91C254.75 507.3 220.49 502.4 218.53 507.8L239.22 576.52C239.22 576.52 235.57 578.74 228.21 582.42C228.21 582.42 185.17 506.57 189.59 496.76C194.01 486.95 223.69 481.31 225.16 475.91C226.63 470.51 227.61 461.68 227.61 461.68L259.08 461.13Z" fill="#312C48"/>
<path d="M200.07 382.46C200.96 385.83 202.54 389.54 205.84 390.63C208.88 391.64 212.11 390.01 214.86 388.37C218.1 386.44 221.38 384.33 223.45 381.18C226.59 376.41 229.13 370.57 228.78 364.87C228.66 362.85 225.7 360.38 224.48 358.77C223.62 357.64 222.33 356.91 221.04 356.3C217.98 354.84 214.72 353.82 211.37 353.28C205.79 352.37 199.58 353.62 198.46 359.75C197.13 367.05 198.2 375.36 200.07 382.46Z" fill="#F5D09F"/>
<path d="M208.23 369.46C208.23 370.3 208.91 370.99 209.76 370.99C210.6 370.99 211.29 370.31 211.29 369.46C211.29 368.62 210.61 367.93 209.76 367.93C208.91 367.93 208.23 368.62 208.23 369.46Z" fill="#44263D"/>
<path d="M199.56 369.46C199.56 370.3 200.24 370.99 201.09 370.99C201.93 370.99 202.62 370.31 202.62 369.46C202.62 368.62 201.94 367.93 201.09 367.93C200.25 367.93 199.56 368.62 199.56 369.46Z" fill="#44263D"/>
<path d="M211.12 375.01C208.18 375.01 205.8 372.63 205.8 369.69C205.8 366.76 208.19 364.37 211.12 364.37C214.06 364.37 216.44 366.75 216.44 369.69C216.44 372.63 214.05 375.01 211.12 375.01ZM211.12 365.37C208.73 365.37 206.78 367.31 206.78 369.7C206.78 372.09 208.73 374.03 211.12 374.03C213.51 374.03 215.46 372.09 215.46 369.7C215.46 367.31 213.51 365.37 211.12 365.37Z" fill="#44263D"/>
<path d="M203.1 366.87L202.31 366.28C202.96 365.42 203.93 364.9 205.03 364.84C206.22 364.77 207.42 365.25 208.25 366.13L207.54 366.81C206.91 366.14 205.98 365.78 205.08 365.83C204.29 365.86 203.58 366.24 203.1 366.87Z" fill="#44263D"/>
<path d="M199.38 375.01C196.44 375.01 194.06 372.63 194.06 369.69C194.06 366.76 196.45 364.37 199.38 364.37C202.32 364.37 204.7 366.75 204.7 369.69C204.7 372.63 202.31 375.01 199.38 375.01ZM199.38 365.37C196.99 365.37 195.04 367.31 195.04 369.7C195.04 372.09 196.99 374.03 199.38 374.03C201.77 374.03 203.72 372.09 203.72 369.7C203.72 367.31 201.77 365.37 199.38 365.37Z" fill="#44263D"/>
<path d="M239.43 391.64C239.43 391.64 239.37 390.54 235.44 389.56C234.31 389.28 232.91 389.28 232.01 388.49C228.83 385.71 225.92 380.54 224.83 376.73C224.67 376.17 224.51 375.57 224.66 375C222.01 377.25 219.44 379.6 216.98 382.05C216.14 382.89 211.03 382.41 211.64 383.55C211.81 383.87 213.11 386.84 214.39 389.73C211.91 391.35 209.18 393.47 209.18 393.47L205.75 412.6L215.81 418.24C215.81 418.24 227.09 415.79 234.45 411.86C241.83 407.96 239.43 391.64 239.43 391.64Z" fill="#F5D09F"/>
<path d="M235.45 389.56C235.45 389.56 232.51 394.96 225.15 398.15C217.79 401.34 211.17 391.77 211.17 391.77L203.74 397.47C203.74 397.47 203.07 423.55 206.26 437.78C209.45 452.01 212.39 471.98 212.39 471.98C212.39 471.98 215.68 476.8 219.88 477.09C225.02 477.44 232.11 473.41 243.3 475.42C255.72 477.65 264.96 475.69 264.96 475.69C264.96 475.69 255.41 429.02 253.2 419.7C250.99 410.38 245.26 391.28 245.26 391.28C245.26 391.28 240.35 390.05 235.45 389.56Z" fill="#FFB100"/>
<path d="M105.49 459.04H148.42V455.34H102.48V456.04C102.48 457.7 103.83 459.04 105.49 459.04Z" fill="#ECE8EC"/>
<path d="M119.08 413.12C120.36 413.12 121.5 413.92 121.93 415.12L136.52 455.39L135.62 455.77L135.86 456.47L102.49 455.34L88.2899 417.21C87.5499 415.23 89.0199 413.12 91.1299 413.12H119.08Z" fill="#576D8D"/>
<path d="M107.66 436.96C108.65 440.76 110.59 443.79 111.99 443.73C113.39 443.67 113.73 440.54 112.74 436.74C111.75 432.94 109.81 429.91 108.41 429.97C107.01 430.03 106.67 433.16 107.66 436.96Z" fill="#ECE8EC"/>
<path d="M205.07 366.16C205.13 369.1 203.94 371.31 202.71 373.89C202.17 375.02 201.71 376.56 202.16 377.8C202.22 377.98 202.38 378.13 202.58 378.12C203.72 378.09 205.03 377.3 206.06 376.84C206.49 376.65 206.18 375.92 205.74 376.08C205.25 376.26 204.76 376.51 204.26 376.65C203.2 376.94 203.02 377.11 202.98 375.99C202.93 374.6 204.16 373.1 204.68 371.84C205.44 369.99 205.72 368.15 205.56 366.17C205.53 365.85 205.07 365.84 205.07 366.16Z" fill="#44263D"/>
<path d="M209.02 363.45C209.62 363.65 210.26 363.63 210.89 363.69C211.55 363.75 212.2 363.84 212.86 363.92C213.71 364.02 213.91 362.55 213.06 362.42C211.82 362.22 210.26 361.91 209.02 362.22C208.38 362.38 208.44 363.26 209.02 363.45Z" fill="#44263D"/>
<path d="M199.23 363.48C200.27 363.65 201.33 363.47 202.39 363.54C203.38 363.61 203.35 362.12 202.39 362.02C201.3 361.9 200.02 361.93 199.12 362.62C198.84 362.83 198.78 363.4 199.23 363.48Z" fill="#44263D"/>
<path d="M215.96 368.72C217 368.6 217.98 368.2 218.98 367.89C219.97 367.58 221.06 367.36 221.94 366.82C222.23 366.64 222.12 366.16 221.76 366.16C220.72 366.18 219.68 366.59 218.71 366.92C217.72 367.25 216.67 367.54 215.79 368.12C215.56 368.27 215.62 368.76 215.96 368.72Z" fill="#44263D"/>
<path d="M208.32 361.03C203.55 360.72 198.53 360.69 194.35 358.51C192.32 357.45 190.5 355.77 190.11 353.64C189.72 351.51 191.28 349.05 193.6 348.89C194.08 348.86 194.6 348.91 195 348.67C195.51 348.36 195.6 347.71 195.67 347.14C196.19 343.36 199.37 339.54 203.48 339.63C206.83 339.71 209.96 342.29 213.2 341.51C214.2 341.27 215.08 340.73 215.99 340.28C218.75 338.95 221.99 338.51 225.04 339.05C228.26 339.62 231.67 342.16 230.89 345.11C230.63 346.1 229.92 346.95 229.73 347.95C229.06 351.52 234.74 353.3 235.87 356.77C236.89 359.93 233.77 363.07 234.01 366.36C234.14 368.19 235.21 370.34 233.82 371.64C233.08 372.33 231.81 372.51 231.31 373.37C230.63 374.54 231.89 375.88 232.01 377.2C232.15 378.85 230.27 380.23 228.49 380.09C226.72 379.95 225.24 378.64 224.54 377.12C223.84 375.6 223.79 373.9 223.85 372.25C226.85 371.41 228.7 366.46 225.88 365.19C224.37 364.52 222.77 366.15 222.2 367.54C219.22 362.82 214.46 361.03 208.32 361.03Z" fill="#312C48"/>
<path d="M220.51 368.65C219.52 370.93 218.53 373.22 217.54 375.5C217.14 376.41 216.72 377.36 215.96 378.01C214.8 379 213.1 379.06 211.61 378.76C210.12 378.46 207.26 377.64 205.74 377.77C202.27 378.07 199.72 379.73 199.5 380.15C199.05 381 199.68 382.32 199.69 383.27C199.7 384.28 199.54 385.31 199.03 386.17C198.68 386.75 198.19 387.22 197.73 387.71C196.5 389.02 195.39 390.66 195.49 392.45C195.63 394.91 197.89 396.62 199.94 397.98C201.25 398.85 202.61 399.74 204.16 400.03C205.2 400.22 206.27 400.13 207.32 400.04C209.51 399.85 211.72 399.65 213.83 399C215.93 398.35 217.95 397.22 219.27 395.46C220.4 393.96 220.95 392.11 221.48 390.31C222.33 387.39 223.17 384.43 223.27 381.4C223.37 378.55 222.82 375.73 222.53 372.9C222.28 370.43 222.23 367.93 222.37 365.45C222.39 365.15 222.42 364.42 221.97 364.35C221.48 364.28 221.65 365.03 221.58 365.33C221.33 366.5 220.99 367.55 220.51 368.65Z" fill="#312C48"/>
<path d="M202.21 381.68C201.74 382.7 201.98 384 202.79 384.78C203.15 385.13 203.65 385.39 204.15 385.33C204.65 385.27 205.12 384.83 205.08 384.32C205.06 384.13 204.99 383.93 205.09 383.77C205.19 383.62 205.4 383.59 205.58 383.58C206.26 383.54 207.08 383.59 207.4 384.19C207.5 384.37 207.53 384.58 207.64 384.76C207.9 385.18 208.48 385.23 208.97 385.19C209.67 385.13 210.37 384.98 211.03 384.73C211.37 384.6 211.7 384.45 211.95 384.19C212.2 383.93 212.33 383.54 212.21 383.2C212.11 382.92 211.86 382.73 211.61 382.55C209.49 381.04 203.92 377.98 202.21 381.68Z" fill="#F5D09F"/>
<path d="M203.26 381.66C204.37 382.36 206.71 382.4 207.79 381.58C208.05 381.39 207.99 380.93 207.61 380.93C206.91 380.93 206.23 381.21 205.51 381.25C204.8 381.29 204.1 381.14 203.39 381.18C203.14 381.19 203.04 381.52 203.26 381.66Z" fill="#44263D"/>
<path d="M233.22 508.3C233.22 508.3 231.81 468.71 240.64 466.09C249.48 463.48 268.92 464.22 268.92 464.22L270.69 471.32C270.69 471.32 245.23 469.45 241.7 474.31C238.16 479.17 241.7 508.67 241.7 508.67L233.22 508.3Z" fill="#576D8D"/>
<path d="M162 449.99L173.37 446.22L183.44 448.77C189.11 447.3 190.99 447.38 202.6 444.39C212.4 441.87 223.65 436.85 223.65 436.85L236.42 417.77C241.82 418.26 248.72 429.24 248.72 429.24C248.72 429.24 233.21 450.34 228.8 451.81C224.38 453.28 190.7 457.19 179.35 455.89C175.78 455.48 169.45 451.57 169.45 451.57L163.72 452.91L156.72 457.63L155.5 456.62L158.28 453.57L162 449.99Z" fill="#F5D09F"/>
<path d="M245.26 391.28C245.26 391.28 260.47 393.73 260.22 406.73C260.06 415.2 248.45 431.01 248.45 431.01C248.45 431.01 242.07 422.18 234.22 419.73C234.22 419.73 240.35 407.71 240.84 402.8C241.33 397.9 245.26 391.28 245.26 391.28Z" fill="#FFD970"/>
<path d="M139.52 459.04H182.45V455.34H136.51V456.04C136.52 457.7 137.86 459.04 139.52 459.04Z" fill="#576D8D"/>
<path d="M162.857 457.66H178.167V456.51H162.857V457.66Z" fill="#ECE8EC"/>
<path d="M158.293 457.66H160.563V456.51H158.293V457.66Z" fill="#ECE8EC"/>
<path d="M66.3699 443.49L64.2999 428.29L65.0499 425.52L66.6999 427.84L68.6099 443.34L66.3699 443.49Z" fill="#576D8D"/>
<path d="M76.3699 444.49L78.5299 429.3L79.9899 426.84L80.9599 429.52L78.5699 444.95L76.3699 444.49Z" fill="#576D8D"/>
<path d="M69.3999 445.66L69.5899 430.1L70.9099 427.65L72.0499 430.14L71.8399 445.68L69.3999 445.66Z" fill="#576D8D"/>
<path d="M78.6399 460.68H66.8699L64.7399 441.17H80.1899L78.6399 460.68Z" fill="#FFD970"/>
<path d="M230.61 608.25H233.43L201.67 470.07H195.69L230.61 608.25Z" fill="#576D8D"/>
<path d="M144.55 606.81H147.37L167.81 470.07H161.82L144.55 606.81Z" fill="#576D8D"/>
<path d="M101.75 607.64H104.57L82.1199 470.07H76.1399L101.75 607.64Z" fill="#576D8D"/>
<path d="M22.6299 606.18H25.4499L52.4699 470.07H46.4899L22.6299 606.18Z" fill="#576D8D"/>
<path d="M69.5815 470.075H218.572V463.895H69.5815V470.075Z" fill="#7DADDF"/>
<path d="M21.8146 470.075H159.205V463.895H21.8146V470.075Z" fill="#93BCEB"/>
<path d="M72.9037 466.99H232.244V458.72H72.9037V466.99Z" fill="#93BCEB"/>
<path d="M0.921143 466.99H148.671V458.72H0.921143V466.99Z" fill="#CCE1F7"/>
<path d="M495.76 455.95C495.76 463.15 501.49 468.98 508.56 468.98L511.76 462.79C518.83 462.79 524.56 451.95 524.56 444.76V439.87C524.56 432.68 518.83 426.84 511.76 426.84H508.56C501.49 426.84 495.76 432.67 495.76 439.87V455.95Z" fill="#30363D"/>
<path d="M522.5 439.68C523.2 439.68 523.89 439.73 524.56 439.82C524.43 440.68 524.34 441.56 524.34 442.46C524.34 451.13 530.87 458.26 539.29 459.29C538.02 467.4 530.99 473.62 522.5 473.62C513.1 473.62 505.48 466.02 505.48 456.65C505.48 447.27 513.1 439.68 522.5 439.68Z" fill="#30363D"/>
<path d="M500.87 431.79C500.89 432.99 500.99 434.21 501.18 435.46C502.47 443.83 507.47 450.18 512.92 450.96C513.09 454.75 513.84 458.16 514.74 461.06C515.76 464.36 522.67 469.26 522.67 469.26C523.59 475.1 500.95 482.26 501.41 481.32C501.87 480.38 506.69 473.5 508.26 467.18C509.36 462.78 507.95 459.16 506.3 456.65C503.24 452.99 498.82 453.05 498.82 453.05C498.4 453.05 498.01 452.86 497.74 452.57C497.48 451.71 497.34 450.79 497.34 449.85V439.1C497.34 436.12 498.73 433.47 500.87 431.79Z" fill="#E9D6B8"/>
<path d="M509.46 517.63C511.62 523.02 523.24 523.02 525.4 517.63L537.74 478.73C539.9 473.34 537.54 468.93 532.5 468.93H521.83C521.83 468.93 516.5 477.82 512.02 477.25C507.26 476.65 507.63 468.93 507.63 468.93H503.98C498.94 468.93 496.58 473.34 498.74 478.73L509.46 517.63Z" fill="#FEB04C"/>
<path d="M498.33 472.47L486.07 510.08C486.07 510.08 485.23 512.68 487.8 510.96C491.41 508.55 499.52 499.78 506.72 482.34C512.02 469.53 501.59 471.75 498.33 472.47Z" fill="#FEB04C"/>
<path d="M495.56 615.32C496.14 613.23 496.55 611.11 497.06 609.06C499.07 605.86 500.89 604.06 502.37 604.05C507.98 604.02 510.97 623.56 499.48 660.84C498.84 662.91 488.79 700.4 488.77 698.9C488.53 668.59 493.48 622.89 495.56 615.32Z" fill="#E9D6B8"/>
<path d="M529.97 615.73C529.52 613.61 528.92 611.54 528.43 609.48C528.74 605.7 529.53 603.24 530.83 602.53C535.79 599.83 547.38 615.71 554.29 654.15C554.68 656.29 562.95 694.23 562.25 692.9C548.14 666.19 531.59 623.42 529.97 615.73Z" fill="#E9D6B8"/>
<path d="M492.92 626.23C492.66 624.95 492.53 623.49 492.52 621.94C492.82 613.22 492.47 604.37 493.86 587.8C495.22 571.72 498.33 547.93 505.02 520.42C505.67 517.61 506.46 515.2 507.36 513.23C513.44 512.37 519.62 516.58 525.92 518.39C528.23 522.76 530.24 527.99 531.65 534.31C538.49 562.8 541.92 579.27 543.73 593.09C545.57 606.48 545.79 617.23 546.71 624.37C529.32 653.81 511.41 598.99 492.92 626.23Z" fill="#0253A2"/>
<path d="M487.66 509.11C487.66 509.11 490.22 508.33 486.53 494.29C482.84 480.25 474.31 460.48 474.31 460.48L480.13 493.61C480.12 493.6 482.89 506.18 487.66 509.11Z" fill="#E9D6B8"/>
<path d="M478.13 471.27C476.55 464.54 478.89 460.95 479.2 458.06C479.51 455.17 480.31 452.16 480.29 452.18C478.07 454.29 478.5 456.47 477.92 457.76C477.34 459.05 477.69 458.67 476.97 456.31C476.56 454.97 478.15 452.07 478.93 450.07C479.61 448.34 479.47 447.38 479.47 447.38C479.47 447.38 477.71 449.63 476.48 452.26C475 455.44 474 459.17 473.92 460.02C473.75 461.57 474.67 466.1 475.8 469.22C477.09 472.73 479.27 476.11 478.13 471.27Z" fill="#E9D6B8"/>
<path d="M474.14 460.35C474.14 460.35 474.11 454.93 474.5 453.88C474.78 453.15 476.63 449.94 476.63 449.94C476.63 449.94 476.8 451.93 476.13 453.26C475.46 454.59 474.14 460.35 474.14 460.35Z" fill="#E9D6B8"/>
<path d="M477.64 478.05C477.6 485.05 479.82 495.67 484.05 507.02C484.54 508.36 485.06 509.67 485.58 510.94C486.38 512.9 489.72 510.21 489.55 506.62C489.21 499.68 486.5 491.68 482.66 481.39C482.01 479.63 481.33 477.92 480.63 476.26C479.61 476.77 478.61 477.37 477.64 478.05Z" fill="#F4DA80"/>
<path d="M471.05 698.72C471.05 698.72 473.09 698.71 478.25 699.83C481.27 700.49 483.38 701.41 484.82 700.77C487.21 699.72 489.03 689.08 489.35 681.35C489.39 680.48 494.54 678.46 494.3 679.42C491.2 691.9 491.03 699.79 490.73 701.53C490.22 704.48 488.89 707.14 487.48 707.23C484.69 707.42 471.85 701.43 470.82 700.89C469.79 700.35 470.83 698.33 471.05 698.72Z" fill="#E9D6B8"/>
<path d="M568.07 700.93C569.28 708.43 568.69 714.77 566.74 715.1C564.79 715.43 562.23 709.61 561.01 702.11C559.8 694.61 560.39 688.27 562.33 687.94C564.28 687.61 566.85 693.43 568.07 700.93Z" fill="#163F59"/>
<path d="M566.57 697.05C568.25 702.39 567.53 707.65 565.58 707.98C563.63 708.3 561.54 704.21 560.89 698.64C560.06 691.6 560.5 688.63 558.25 684.8C555.94 680.86 555.6 676.92 556.11 676.32C556.61 675.73 559.23 677.21 559.58 679.26C560.08 682.2 561.34 684.8 561.83 685.61C563.21 687.87 564.83 691.5 566.57 697.05Z" fill="#E9D6B8"/>
<path d="M474.12 699.03C472.07 701.88 482.15 704.69 484.96 704.93C487.64 705.15 489.26 705.55 489.26 705.55C489.36 705.6 489.46 705.62 489.56 705.66C489.54 705.74 489.53 705.82 489.5 705.9C488.78 707.64 488.58 710.28 485.85 709.1L468.73 701.77C454.73 695.77 474.17 698.96 474.12 699.03Z" fill="#163F59"/>
<path d="M600.72 500.2C605.95 501.12 609.47 506.13 608.56 511.34L598.64 568.06C597.72 573.29 592.71 576.81 587.48 575.9L453.11 552.39C447.89 551.48 444.37 546.46 445.28 541.23L455.2 484.51C456.11 479.3 461.13 475.78 466.35 476.69L600.72 500.2Z" fill="#474F59"/>
<path d="M597.44 566.35C596.53 571.58 591.5 575.1 586.28 574.19L454.84 551.19C449.62 550.28 446.1 545.25 447.01 540.03L456.42 486.25C457.34 481.02 462.36 477.49 467.57 478.4L599.01 501.4C604.23 502.31 607.76 507.33 606.85 512.57L597.44 566.35Z" fill="#30363D"/>
<path d="M458.04 523.53C458.74 523.65 459.22 524.32 459.09 525.03C458.97 525.73 458.29 526.2 457.59 526.08C456.89 525.96 456.41 525.28 456.53 524.58C456.66 523.88 457.34 523.41 458.04 523.53Z" fill="#596273"/>
<path d="M455.3 513.05C455.75 513.13 456.06 513.56 455.98 514.02C455.9 514.47 455.47 514.78 455.02 514.7C454.56 514.62 454.26 514.18 454.34 513.73C454.42 513.27 454.85 512.97 455.3 513.05Z" fill="#596273"/>
<path d="M460.36 509.57C460.7 509.63 460.91 509.96 460.86 510.28L459.33 519.05C459.27 519.4 458.96 519.62 458.62 519.56C458.28 519.5 458.06 519.18 458.12 518.84L459.65 510.07C459.7 509.75 460.03 509.51 460.36 509.57Z" fill="#596273"/>
<path d="M596.37 533.06C596.98 533.17 597.37 533.74 597.27 534.34L595.87 542.37C595.76 542.99 595.19 543.39 594.59 543.28L592.4 542.9C591.79 542.79 591.38 542.22 591.49 541.61L592.9 533.58C593 532.98 593.58 532.58 594.19 532.69L596.37 533.06Z" fill="#596273"/>
<path d="M467.76 553.55L467.44 555.33L461.59 554.31L461.9 552.53L467.76 553.55Z" fill="#30363D"/>
<path d="M483.09 556.24L482.78 558.01L472.91 556.29L473.22 554.51L483.09 556.24Z" fill="#30363D"/>
<path d="M494.78 558.28L494.47 560.06L485.06 558.41L485.37 556.63L494.78 558.28Z" fill="#30363D"/>
<path d="M473.424 482.765L461.799 549.223L579.723 569.85L591.348 503.392L473.424 482.765Z" fill="#F1FAFC"/>
<path d="M494.828 489.362L484.103 550.638L525.601 557.902L536.326 496.625L494.828 489.362Z" fill="#21356B"/>
<path d="M536.52 496.623L525.801 557.9L577.73 566.984L588.449 505.707L536.52 496.623Z" fill="#E5E8EC"/>
<path d="M473.829 507.448L466.809 547.577L477.516 549.45L484.536 509.321L473.829 507.448Z" fill="#21356B"/>
<path d="M477.529 486.315L475.464 498.116L486.171 499.989L488.235 488.188L477.529 486.315Z" fill="#808080"/>
<path d="M543.223 518.549L537.023 553.989L541.18 554.716L547.379 519.276L543.223 518.549Z" fill="#808080"/>
<path d="M554.485 506.69L545.939 555.546L549.062 556.093L557.608 507.237L554.485 506.69Z" fill="#B0ACA3"/>
<path d="M561.95 506.941L553.224 556.822L556.347 557.368L565.072 507.487L561.95 506.941Z" fill="#B0ACA3"/>
<path d="M572.653 518.361L565.545 558.992L576.656 560.936L583.764 520.304L572.653 518.361Z" fill="#808080"/>
<path d="M575.068 528.282L571.175 550.524L574.297 551.07L578.19 528.829L575.068 528.282Z" fill="white"/>
<path d="M550.51 515.35C550.51 515.35 553.33 515.84 552.36 528.14C551.94 533.39 550.94 539.29 549.93 544.34C548.57 551.11 546.54 543.18 546.54 543.18L545.85 529.19C545.86 529.18 546.17 518.2 550.51 515.35Z" fill="#FEB04C"/>
<path d="M537.33 470.37C545 479.79 552.91 519.76 552.91 519.76C552.91 519.76 552.51 535.22 534.57 484.31C529.17 469.02 535.44 468.04 537.33 470.37Z" fill="#FEB04C"/>
<path d="M543.98 569.93L546.71 567.73L548.38 565.39L549.47 560.83C549.47 560.83 550.04 555.86 549.59 553.9C549.14 551.95 549.88 544.5 549.76 543.56C549.63 542.62 546.97 541.99 546.97 541.99C546.97 541.99 546.65 548.84 546.69 552C546.73 555.16 545.26 559.69 545.23 560.93C545.18 563.05 545.69 564.8 545.69 564.8C545.69 564.8 546.34 561.55 546.42 560.67C546.49 559.8 547.41 560.34 547.41 560.34C547.41 560.34 546.97 564.91 546.37 566.05C545.77 567.19 544.84 567.99 544.84 567.99L543.98 569.93Z" fill="#E9D6B8"/>
<defs>
<linearGradient id="paint0_linear_53_1867" x1="181.31" y1="520.412" x2="147.394" y2="483.48" gradientUnits="userSpaceOnUse">
<stop stop-color="#008161"/>
<stop offset="1" stop-color="#9FFF31"/>
</linearGradient>
<linearGradient id="paint1_linear_53_1867" x1="194.085" y1="520.863" x2="176.048" y2="474.079" gradientUnits="userSpaceOnUse">
<stop stop-color="#008161"/>
<stop offset="1" stop-color="#9FFF31"/>
</linearGradient>
<linearGradient id="paint2_linear_53_1867" x1="202.518" y1="521.242" x2="206.912" y2="476.071" gradientUnits="userSpaceOnUse">
<stop stop-color="#008161"/>
<stop offset="1" stop-color="#9FFF31"/>
</linearGradient>
<linearGradient id="paint3_linear_53_1867" x1="207.782" y1="518.104" x2="229.117" y2="483.354" gradientUnits="userSpaceOnUse">
<stop stop-color="#008161"/>
<stop offset="1" stop-color="#9FFF31"/>
</linearGradient>
<linearGradient id="paint4_linear_53_1867" x1="261.696" y1="537.916" x2="178.697" y2="410.846" gradientUnits="userSpaceOnUse">
<stop stop-color="#008161"/>
<stop offset="1" stop-color="#9FFF31"/>
</linearGradient>
<linearGradient id="paint5_linear_53_1867" x1="241.586" y1="548.093" x2="139.64" y2="386.852" gradientUnits="userSpaceOnUse">
<stop stop-color="#008161"/>
<stop offset="1" stop-color="#9FFF31"/>
</linearGradient>
<linearGradient id="paint6_linear_53_1867" x1="212.764" y1="438.214" x2="284.309" y2="321.464" gradientUnits="userSpaceOnUse">
<stop stop-color="#008161"/>
<stop offset="1" stop-color="#9FFF31"/>
</linearGradient>
<linearGradient id="paint7_linear_53_1867" x1="169.766" y1="550.684" x2="279.808" y2="376.637" gradientUnits="userSpaceOnUse">
<stop stop-color="#008161"/>
<stop offset="1" stop-color="#9FFF31"/>
</linearGradient>
<linearGradient id="paint8_linear_53_1867" x1="174.869" y1="404.829" x2="60.0811" y2="180.734" gradientUnits="userSpaceOnUse">
<stop stop-color="#008161"/>
<stop offset="1" stop-color="#9FFF31"/>
</linearGradient>
<linearGradient id="paint9_linear_53_1867" x1="232.639" y1="549.134" x2="80.5651" y2="271.87" gradientUnits="userSpaceOnUse">
<stop stop-color="#008161"/>
<stop offset="1" stop-color="#9FFF31"/>
</linearGradient>
<linearGradient id="paint10_linear_53_1867" x1="148.408" y1="457.801" x2="17.7692" y2="331.547" gradientUnits="userSpaceOnUse">
<stop stop-color="#008161"/>
<stop offset="1" stop-color="#9FFF31"/>
</linearGradient>
<linearGradient id="paint11_linear_53_1867" x1="216.997" y1="543.25" x2="50.6733" y2="391.365" gradientUnits="userSpaceOnUse">
<stop stop-color="#008161"/>
<stop offset="1" stop-color="#9FFF31"/>
</linearGradient>
<linearGradient id="paint12_linear_53_1867" x1="129.581" y1="365.761" x2="110.987" y2="331.861" gradientUnits="userSpaceOnUse">
<stop stop-color="#008161"/>
<stop offset="1" stop-color="#9FFF31"/>
</linearGradient>
<linearGradient id="paint13_linear_53_1867" x1="122.747" y1="331.086" x2="111.003" y2="300.367" gradientUnits="userSpaceOnUse">
<stop stop-color="#008161"/>
<stop offset="1" stop-color="#9FFF31"/>
</linearGradient>
<linearGradient id="paint14_linear_53_1867" x1="183.544" y1="346.745" x2="183.456" y2="317.657" gradientUnits="userSpaceOnUse">
<stop stop-color="#008161"/>
<stop offset="1" stop-color="#9FFF31"/>
</linearGradient>
<linearGradient id="paint15_linear_53_1867" x1="163.823" y1="312.37" x2="158.885" y2="290.236" gradientUnits="userSpaceOnUse">
<stop stop-color="#008161"/>
<stop offset="1" stop-color="#9FFF31"/>
</linearGradient>
<linearGradient id="paint16_linear_53_1867" x1="190.359" y1="515.907" x2="190.359" y2="568.15" gradientUnits="userSpaceOnUse">
<stop stop-color="#F70F47"/>
<stop offset="1" stop-color="#9E005D"/>
</linearGradient>
<linearGradient id="paint17_linear_53_1867" x1="190.36" y1="529.239" x2="190.36" y2="506.482" gradientUnits="userSpaceOnUse">
<stop stop-color="#F70F47"/>
<stop offset="1" stop-color="#9E005D"/>
</linearGradient>
</defs>
</svg>
