<svg width="598" height="551" viewBox="0 0 598 551" fill="none" xmlns="http://www.w3.org/2000/svg">
<path d="M497.064 291.304H165.948C161.567 291.304 158.016 287.753 158.016 283.372V79.1512C158.016 74.7676 161.567 71.2196 165.948 71.2196H497.064C501.445 71.2196 504.996 74.7676 504.996 79.1512V283.372C504.996 287.753 501.445 291.304 497.064 291.304Z" fill="#F57933"/>
<path d="M425.818 422.241H32.5827C21.9153 422.241 13.2615 413.593 13.2615 402.92V134.703C13.2615 124.033 21.9153 115.382 32.5827 115.382H425.818C436.489 115.382 445.14 124.033 445.14 134.703V402.92C445.14 413.593 436.489 422.241 425.818 422.241Z" fill="#004455"/>
<path d="M424.145 418.206H34.2588C25.803 418.206 18.9452 411.348 18.9452 402.892V134.734C18.9452 126.275 25.803 119.42 34.2588 119.42H424.145C432.601 119.42 439.456 126.275 439.456 134.734V402.892C439.456 411.348 432.601 418.206 424.145 418.206Z" fill="#84B6E5"/>
<path d="M411.838 391.84H46.5661C41.3537 391.84 37.1285 387.614 37.1285 382.405V142.917C37.1285 137.704 41.3537 133.482 46.5661 133.482H411.838C417.05 133.482 421.273 137.704 421.273 142.917V382.405C421.273 387.614 417.05 391.84 411.838 391.84Z" fill="#D7E3F4"/>
<path d="M2.77529 406.331C1.53145 408.623 0.761719 411.211 0.761719 414.003C0.761719 422.947 8.01277 430.198 16.9567 430.198H441.447C450.391 430.198 457.639 422.947 457.639 414.003C457.639 411.211 456.87 408.623 455.626 406.331H2.77529Z" fill="#B7C4C8"/>
<path d="M2.77527 421.675C5.51952 426.728 10.8044 430.198 16.9567 430.198H441.447C447.599 430.198 452.884 426.728 455.626 421.675H2.77527Z" fill="#DBE2E3"/>
<path d="M445.14 315.681H439.456V307.008H445.14V315.681ZM148.234 119.42H137.631V115.382H148.234V119.42Z" fill="#004455"/>
<path d="M439.456 315.681H421.273V307.008H439.456V315.681ZM148.234 133.482H137.631V119.42H148.234V133.482Z" fill="#699BD9"/>
<path d="M421.273 315.681H145.345C141.084 315.681 137.631 312.231 137.631 307.973V133.482H148.234V299.297C148.234 303.558 151.687 307.008 155.948 307.008H421.273V315.681Z" fill="#455AB1"/>
<path d="M473.43 307.008H445.14V134.703C445.14 124.033 436.489 115.382 425.818 115.382H148.234V100.738C148.234 96.4792 151.687 93.0266 155.948 93.0266H477.881C482.14 93.0266 485.595 96.4792 485.595 100.738V267.099C484.011 268.583 482.438 270.1 480.873 271.662C473.765 278.765 467.498 286.239 462.035 293.973C466.232 297.261 469.952 301.296 472.897 306.115C473.079 306.411 473.257 306.71 473.43 307.008Z" fill="#96C3EA"/>
<path d="M477.881 307.008H473.43C473.257 306.71 473.079 306.411 472.897 306.115C469.952 301.296 466.232 297.261 462.035 293.973C467.498 286.239 473.765 278.765 480.873 271.662C482.438 270.1 484.011 268.583 485.595 267.099V299.297C485.595 303.558 482.14 307.008 477.881 307.008Z" fill="#7DA5DC"/>
<path d="M445.14 307.008H439.456V134.734C439.456 126.275 432.601 119.42 424.145 119.42H148.234V115.382H425.818C436.489 115.382 445.14 124.033 445.14 134.703V307.008Z" fill="#004455"/>
<path d="M439.456 307.008H421.273V142.917C421.273 137.704 417.05 133.482 411.838 133.482H148.234V119.42H424.145C432.601 119.42 439.456 126.275 439.456 134.734V307.008Z" fill="#83ADE0"/>
<path d="M421.273 307.008H155.948C151.687 307.008 148.234 303.558 148.234 299.297V133.482H411.838C417.05 133.482 421.273 137.704 421.273 142.917V307.008Z" fill="#596FBF"/>
<path d="M491.376 292.55H169.441C165.182 292.55 161.729 289.098 161.729 284.839V86.2803C161.729 82.019 165.182 78.5691 169.441 78.5691H491.376C495.635 78.5691 499.087 82.019 499.087 86.2803V284.839C499.087 289.098 495.635 292.55 491.376 292.55Z" fill="#FBFDFE"/>
<path d="M99.4402 224.597H65.2208C62.5574 224.597 60.4016 222.438 60.4016 219.778V183.631C60.4016 180.968 62.5574 178.812 65.2208 178.812H99.4402C102.101 178.812 104.257 180.968 104.257 183.631V219.778C104.257 222.438 102.101 224.597 99.4402 224.597Z" fill="#455AB1"/>
<path d="M96.9107 291.106H62.6914C60.028 291.106 57.8722 288.944 57.8722 286.284V250.137C57.8722 247.477 60.028 245.321 62.6914 245.321H96.9107C99.5713 245.321 101.727 247.477 101.727 250.137V286.284C101.727 288.944 99.5713 291.106 96.9107 291.106Z" fill="#84B6E5"/>
<path d="M96.9107 356.167H62.6914C60.028 356.167 57.8722 354.006 57.8722 351.345V315.199C57.8722 312.538 60.028 310.382 62.6914 310.382H96.9107C99.5713 310.382 101.727 312.538 101.727 315.199V351.345C101.727 354.006 99.5713 356.167 96.9107 356.167Z" fill="#84B6E5"/>
<path d="M89.3808 328.231C89.3808 322.475 84.715 317.806 78.956 317.806C73.1998 317.806 68.5312 322.475 68.5312 328.231C68.5312 328.231 67.0642 339.272 78.956 348.054C90.8505 339.272 89.3808 328.231 89.3808 328.231Z" fill="#8063B8"/>
<path d="M79.5695 335.756C74.9177 336.124 71.0634 332.269 71.4288 327.618C71.716 323.959 74.6834 320.991 78.3424 320.704C82.9942 320.339 86.8484 324.193 86.4803 328.845C86.1931 332.504 83.2285 335.468 79.5695 335.756Z" fill="#FBFDFE"/>
<path d="M93.1736 267.607C93.1736 275.572 86.7146 282.031 78.7524 282.031C70.7846 282.031 64.3284 275.572 64.3284 267.607C64.3284 259.642 70.7846 253.186 78.7524 253.186C86.7146 253.186 93.1736 259.642 93.1736 267.607Z" fill="#8063B8"/>
<path d="M90.3819 267.607C90.3819 274.032 85.1751 279.239 78.7524 279.239C72.3268 279.239 67.12 274.032 67.12 267.607C67.12 261.184 72.3268 255.977 78.7524 255.977C85.1751 255.977 90.3819 261.184 90.3819 267.607Z" fill="#FBFDFE"/>
<path d="M78.7524 255.977C84.0234 255.977 88.4716 259.483 89.9023 264.291L90.3457 264.631C90.6553 264.631 90.884 264.333 90.7947 264.037C89.2581 258.839 84.4473 255.046 78.7524 255.046C73.0547 255.046 68.2467 258.839 66.7101 264.037C66.6181 264.333 66.8439 264.631 67.1563 264.631L67.6025 264.291C69.0304 259.483 73.4787 255.977 78.7524 255.977Z" fill="#A97BC4"/>
<path d="M91.6536 267.981C90.962 267.981 90.3652 268.483 90.2759 269.169C89.509 274.855 84.6424 279.239 78.7523 279.239C72.8595 279.239 67.9929 274.855 67.2287 269.169C67.1367 268.483 66.5399 267.981 65.8482 267.981C65.0088 267.981 64.3506 268.717 64.4622 269.548C65.4132 276.595 71.4455 282.031 78.7523 282.031C86.0564 282.031 92.0915 276.595 93.0397 269.548C93.1512 268.717 92.4931 267.981 91.6536 267.981Z" fill="#6A52AE"/>
<path d="M90.3819 267.607C90.3819 274.032 85.1751 279.239 78.7524 279.239C72.3268 279.239 67.12 274.032 67.12 267.607C67.12 261.184 72.3268 255.977 78.7524 255.977C85.1751 255.977 90.3819 261.184 90.3819 267.607Z" fill="#FBFDFE"/>
<path d="M90.0864 271.361L89.6485 271.67C88.0003 276.091 83.7445 279.239 78.7524 279.239C73.7576 279.239 69.5018 276.091 67.8535 271.67L67.4129 271.361C67.0894 271.361 66.8607 271.684 66.975 271.988C68.7515 276.765 73.3532 280.168 78.7524 280.168C84.1461 280.168 88.7505 276.765 90.5298 271.988C90.6413 271.684 90.4127 271.361 90.0864 271.361Z" fill="#8063B8"/>
<path d="M78.7189 268.63C78.4121 268.63 78.1611 268.379 78.1611 268.073V259.882C78.1611 259.575 78.4121 259.327 78.7189 259.327C79.0284 259.327 79.2767 259.575 79.2767 259.882V268.073C79.2767 268.379 79.0284 268.63 78.7189 268.63Z" fill="#8063B8"/>
<path d="M78.3174 267.763L79.1039 267.696L84.1545 271.963L84.2215 272.752L83.435 272.817L78.3844 268.55L78.3174 267.763Z" fill="#8063B8"/>
<path d="M78.426 257.885H78.8444V256.766H78.426V257.885Z" fill="#D4D4EE"/>
<path d="M78.426 278.26H78.8444V277.145H78.426V278.26Z" fill="#D4D4EE"/>
<path d="M67.887 267.724H69.0058V267.302H67.887V267.724Z" fill="#D4D4EE"/>
<path d="M88.2651 267.724H89.3807V267.302H88.2651V267.724Z" fill="#D4D4EE"/>
<path d="M71.9727 260.557L71.6771 260.852L70.8878 260.063L71.1835 259.765L71.9727 260.557Z" fill="#D4D4EE"/>
<path d="M86.3827 274.967L86.0871 275.262L85.2979 274.473L85.5935 274.175L86.3827 274.967Z" fill="#D4D4EE"/>
<path d="M71.6771 274.175L71.9727 274.473L71.1835 275.262L70.8878 274.967L71.6771 274.175Z" fill="#D4D4EE"/>
<path d="M86.0871 259.765L86.3827 260.063L85.5935 260.852L85.2979 260.557L86.0871 259.765Z" fill="#D4D4EE"/>
<path d="M96.9107 223.15H62.6914C60.028 223.15 57.8722 220.994 57.8722 218.33V182.184C57.8722 179.523 60.028 177.365 62.6914 177.365H96.9107C99.5713 177.365 101.727 179.523 101.727 182.184V218.33C101.727 220.994 99.5713 223.15 96.9107 223.15Z" fill="#84B6E5"/>
<path d="M55.7637 218.453L59.3781 215.924L61.004 209.958L59.1968 209.596L58.1148 211.765L59.1968 201.463L57.3896 201.823L55.5825 211.765L53.4127 216.465L55.4012 217.728" fill="#F6CE9B"/>
<path d="M77.1488 229.176L77.6313 224.837L82.9329 219.538L84.1377 221.222L82.2078 223.389L92.3286 220.983V223.15L82.9329 226.764L81.0058 230.138L77.1488 229.176Z" fill="#F6CE9B"/>
<path d="M11.167 336.408L30.8787 432.839L45.7963 431.241L35.6755 427.512L39.4042 426.447L34.0747 336.408H11.167Z" fill="#5149A7"/>
<path d="M42.6003 334.813C42.6003 334.813 67.6416 358.253 63.9101 386.488C59.6459 408.863 50.5904 417.388 50.5904 417.388L47.9271 416.856L52.0574 427.78L40.0681 414.993C40.0681 414.993 54.8546 394.615 45.6625 373.436C36.4732 352.257 16.4938 344.666 16.4938 344.666C16.4938 344.666 33.676 329.085 34.8752 329.481C36.0716 329.882 42.6003 334.813 42.6003 334.813Z" fill="#5149A7"/>
<path d="M53.2538 214.805C53.2538 214.805 12.0985 264.751 7.30441 274.741C7.30441 274.741 5.30481 278.338 5.30481 288.727C5.30481 299.115 8.90243 337.476 8.90243 337.476L50.8581 339.872C50.8581 339.872 37.2708 293.119 36.872 291.923C36.4732 290.724 29.6795 283.531 23.2874 281.933L58.4494 218.4L53.2538 214.805Z" fill="#F57933"/>
<path d="M27.1946 277.108C27.1946 277.108 28.9433 282.293 29.9082 285.43C29.9082 285.43 21.3436 285.249 18.3289 281.269L21.5249 273.611L27.1946 277.108Z" fill="#F6CE9B"/>
<path d="M33.7066 260.9C33.7066 260.9 36.2389 275.65 33.7066 279.002C31.1744 282.354 22.4898 276.654 18.8699 271.291C15.2527 265.925 14.5304 253.858 20.6799 252.854C26.8321 251.847 32.2592 255.534 33.7066 260.9Z" fill="#F6CE9B"/>
<path d="M29.8134 288.205C29.8134 288.205 62.8085 267.448 65.4691 263.189C68.1297 258.933 75.5815 227.266 75.5815 227.266L81.968 228.861C81.968 228.861 78.2421 264.255 77.1767 267.981C76.1142 271.706 43.649 306.3 36.1971 306.3C28.7481 306.3 26.0875 296.717 29.8134 288.205Z" fill="#F57933"/>
<path d="M15.9415 253.512C15.9415 253.512 20.281 247.488 27.9922 248.935C35.7007 250.38 37.6305 248.696 37.6305 248.696C37.6305 248.696 35.9433 257.126 30.6417 259.053C25.34 260.983 23.8954 260.501 23.8954 260.501C23.8954 260.501 26.7875 263.393 27.5098 265.56C28.2321 267.73 25.1002 262.91 23.8954 264.598C22.6906 266.282 23.8954 269.899 26.305 269.657C28.7146 269.417 27.2671 271.344 26.305 273.271C25.34 275.201 23.8954 277.61 22.448 276.885C21.0033 276.163 15.9415 273.271 14.0144 267.247C12.0873 261.223 11.6049 255.442 15.9415 253.512Z" fill="#5149A7"/>
<path d="M280.047 271.587H186.065C184.071 271.587 182.454 269.969 182.454 267.972V104.592C182.454 102.595 184.071 100.978 186.065 100.978H280.047C282.041 100.978 283.662 102.595 283.662 104.592V267.972C283.662 269.969 282.041 271.587 280.047 271.587Z" fill="#E8EBF8"/>
<path d="M262.455 129.173H202.692C201.097 129.173 199.803 127.876 199.803 126.281V117.605C199.803 116.007 201.097 114.713 202.692 114.713H262.455C264.05 114.713 265.347 116.007 265.347 117.605V126.281C265.347 127.876 264.05 129.173 262.455 129.173Z" fill="#37ABC8"/>
<path d="M221.732 209.534H208.716C205.657 209.534 203.175 207.052 203.175 203.993C203.175 200.933 205.657 198.454 208.716 198.454H221.732C224.791 198.454 227.273 200.933 227.273 203.993C227.273 207.052 224.791 209.534 221.732 209.534Z" fill="#37ABC8"/>
<path d="M259.323 209.534H246.307C243.248 209.534 240.769 207.052 240.769 203.993C240.769 200.933 243.248 198.454 246.307 198.454H259.323C262.385 198.454 264.865 200.933 264.865 203.993C264.865 207.052 262.385 209.534 259.323 209.534Z" fill="#8063B8"/>
<path d="M198.359 154.714H268.719V143.631H198.359V154.714Z" fill="#FBFDFE"/>
<path d="M198.359 173.51H268.719V162.427H198.359V173.51Z" fill="#FBFDFE"/>
<path d="M213.538 183.029H254.022V180.499H213.538V183.029Z" fill="#D4D3EE"/>
<path d="M492.221 240.017H365.71C357.923 240.017 351.615 233.708 351.615 225.922C351.615 218.138 357.923 211.824 365.71 211.824H492.221C500.005 211.824 506.316 218.138 506.316 225.922C506.316 233.708 500.005 240.017 492.221 240.017Z" fill="#84B6E5"/>
<path d="M382.7 120.497H303.9C297.514 120.497 292.335 115.318 292.335 108.932C292.335 102.542 297.514 97.3633 303.9 97.3633H382.7C389.086 97.3633 394.268 102.542 394.268 108.932C394.268 115.318 389.086 120.497 382.7 120.497Z" fill="#E8EBF8"/>
<path d="M322.7 108.932C322.7 110.926 321.08 112.546 319.083 112.546C317.086 112.546 315.469 110.926 315.469 108.932C315.469 106.935 317.086 105.317 319.083 105.317C321.08 105.317 322.7 106.935 322.7 108.932Z" fill="#FABC29"/>
<path d="M347.518 108.932C347.518 110.926 345.901 112.546 343.904 112.546C341.907 112.546 340.287 110.926 340.287 108.932C340.287 106.935 341.907 105.317 343.904 105.317C345.901 105.317 347.518 106.935 347.518 108.932Z" fill="#82C92A"/>
<path d="M370.409 108.932C370.409 110.926 368.792 112.546 366.795 112.546C364.798 112.546 363.18 110.926 363.18 108.932C363.18 106.935 364.798 105.317 366.795 105.317C368.792 105.317 370.409 106.935 370.409 108.932Z" fill="#EB3E1F"/>
<path d="M88.1007 203.075C88.1007 207.936 84.1601 211.88 79.2963 211.88C74.4353 211.88 70.4918 207.936 70.4918 203.075C70.4918 198.211 74.4353 194.271 79.2963 194.271C84.1601 194.271 88.1007 198.211 88.1007 203.075Z" fill="white"/>
<path d="M79.43 209.568C75.8603 209.568 72.9627 206.673 72.9627 203.1C72.9627 199.531 75.8603 196.636 79.43 196.636C83.0026 196.636 85.8974 199.531 85.8974 203.1C85.8974 206.673 83.0026 209.568 79.43 209.568ZM88.4241 192.441H86.8735L84.6424 189.301C84.4695 189.053 84.1823 188.908 83.8783 188.908H74.9818C74.6778 188.908 74.3933 189.053 74.2176 189.301L71.9893 192.441H70.436C68.0236 192.441 66.0491 194.416 66.0491 196.828V209.593C66.0491 212.005 68.0236 213.98 70.436 213.98H88.4241C90.8393 213.98 92.811 212.005 92.811 209.593V196.828C92.811 194.416 90.8393 192.441 88.4241 192.441Z" fill="#8063B8"/>
<path d="M83.7054 203.1C83.7054 205.463 81.7923 207.376 79.4301 207.376C77.0679 207.376 75.1548 205.463 75.1548 203.1C75.1548 200.741 77.0679 198.828 79.4301 198.828C81.7923 198.828 83.7054 200.741 83.7054 203.1Z" fill="#84B6E5"/>
<path d="M394.145 195.119H327.996C324.847 195.119 322.296 192.567 322.296 189.415V149.88C322.296 146.732 324.847 144.18 327.996 144.18H394.145C397.294 144.18 399.848 146.732 399.848 149.88V189.415C399.848 192.567 397.294 195.119 394.145 195.119Z" fill="#E8EBF8"/>
<path d="M361.147 169.255H360.994C360.648 169.255 360.308 169.168 360.007 168.998L330.113 152.39C329.128 151.847 328.771 150.606 329.321 149.621C329.867 148.637 331.106 148.282 332.093 148.829L361.069 164.929L390.051 148.829C391.036 148.282 392.274 148.637 392.821 149.621C393.367 150.606 393.013 151.847 392.029 152.39L362.135 168.998C361.833 169.168 361.493 169.255 361.147 169.255Z" fill="#EF363E"/>
<path d="M508.486 189.898H422.458C419.663 189.898 417.399 187.63 417.399 184.836V70.6153C417.399 67.8208 419.663 65.5563 422.458 65.5563H508.486C511.28 65.5563 513.545 67.8208 513.545 70.6153V184.836C513.545 187.63 511.28 189.898 508.486 189.898Z" fill="#E8EBF8"/>
<path d="M438.882 82.2225H432.475C432.132 82.2225 431.856 81.6703 431.856 80.9843C431.856 80.301 432.132 79.746 432.475 79.746H438.882C439.222 79.746 439.495 80.301 439.495 80.9843C439.495 81.6703 439.222 82.2225 438.882 82.2225Z" fill="#5FCCF5"/>
<path d="M478.539 82.2225H441.896C441.556 82.2225 441.277 81.6703 441.277 80.9843C441.277 80.301 441.556 79.746 441.896 79.746H478.539C478.882 79.746 479.155 80.301 479.155 80.9843C479.155 81.6703 478.882 82.2225 478.539 82.2225Z" fill="#5FCCF5"/>
<path d="M453.584 87.3429H441.896C441.556 87.3429 441.277 86.7879 441.277 86.1046C441.277 85.4214 441.556 84.8664 441.896 84.8664H453.584C453.925 84.8664 454.203 85.4214 454.203 86.1046C454.203 86.7879 453.925 87.3429 453.584 87.3429Z" fill="#F030A2"/>
<path d="M472.811 87.3429H455.966C455.626 87.3429 455.347 86.7879 455.347 86.1046C455.347 85.4214 455.626 84.8664 455.966 84.8664H472.811C473.151 84.8664 473.427 85.4214 473.427 86.1046C473.427 86.7879 473.151 87.3429 472.811 87.3429Z" fill="#E8EBF8"/>
<path d="M478.539 112.27H441.896C441.556 112.27 441.277 111.715 441.277 111.032C441.277 110.348 441.556 109.793 441.896 109.793H478.539C478.882 109.793 479.155 110.348 479.155 111.032C479.155 111.715 478.882 112.27 478.539 112.27Z" fill="#E8EBF8"/>
<path d="M438.882 117.39H432.475C432.132 117.39 431.856 116.835 431.856 116.152C431.856 115.469 432.132 114.914 432.475 114.914H438.882C439.222 114.914 439.495 115.469 439.495 116.152C439.495 116.835 439.222 117.39 438.882 117.39Z" fill="#5FCCF5"/>
<path d="M453.584 117.39H441.896C441.556 117.39 441.277 116.835 441.277 116.152C441.277 115.469 441.556 114.914 441.896 114.914H453.584C453.925 114.914 454.203 115.469 454.203 116.152C454.203 116.835 453.925 117.39 453.584 117.39Z" fill="#E8EBF8"/>
<path d="M472.811 117.39H455.966C455.626 117.39 455.347 116.835 455.347 116.152C455.347 115.469 455.626 114.914 455.966 114.914H472.811C473.151 114.914 473.427 115.469 473.427 116.152C473.427 116.835 473.151 117.39 472.811 117.39Z" fill="#F030A2"/>
<path d="M487.628 92.4632H441.896C441.556 92.4632 441.277 91.9083 441.277 91.225C441.277 90.5389 441.556 89.9839 441.896 89.9839H487.628C487.968 89.9839 488.244 90.5389 488.244 91.225C488.244 91.9083 487.968 92.4632 487.628 92.4632Z" fill="#F030A2"/>
<path d="M478.043 97.5836H467.395C467.035 97.5836 466.742 97.2908 466.742 96.931V95.7569C466.742 95.3971 467.035 95.1043 467.395 95.1043H478.043C478.405 95.1043 478.695 95.3971 478.695 95.7569V96.931C478.695 97.2908 478.405 97.5836 478.043 97.5836Z" fill="#5FCCF5"/>
<path d="M457.087 97.5836H441.896C441.556 97.5836 441.277 97.0286 441.277 96.3426C441.277 95.6593 441.556 95.1043 441.896 95.1043H457.087C457.427 95.1043 457.703 95.6593 457.703 96.3426C457.703 97.0286 457.427 97.5836 457.087 97.5836Z" fill="#E8EBF8"/>
<path d="M465.172 97.5836H459.145C458.805 97.5836 458.532 97.0286 458.532 96.3426C458.532 95.6593 458.805 95.1043 459.145 95.1043H465.172C465.512 95.1043 465.788 95.6593 465.788 96.3426C465.788 97.0286 465.512 97.5836 465.172 97.5836Z" fill="#5FCCF5"/>
<path d="M438.882 102.531H432.475C432.132 102.531 431.856 101.976 431.856 101.293C431.856 100.61 432.132 100.055 432.475 100.055H438.882C439.222 100.055 439.495 100.61 439.495 101.293C439.495 101.976 439.222 102.531 438.882 102.531Z" fill="#E8EBF8"/>
<path d="M487.628 102.531H441.896C441.556 102.531 441.277 101.976 441.277 101.293C441.277 100.61 441.556 100.055 441.896 100.055H487.628C487.968 100.055 488.244 100.61 488.244 101.293C488.244 101.976 487.968 102.531 487.628 102.531Z" fill="#E8EBF8"/>
<path d="M438.882 122.131H432.475C432.132 122.131 431.856 121.579 431.856 120.893C431.856 120.21 432.132 119.655 432.475 119.655H438.882C439.222 119.655 439.495 120.21 439.495 120.893C439.495 121.579 439.222 122.131 438.882 122.131Z" fill="#E8EBF8"/>
<path d="M482.51 122.131H467.509C467.085 122.131 466.742 121.788 466.742 121.364V120.422C466.742 119.998 467.085 119.655 467.509 119.655H482.51C482.937 119.655 483.28 119.998 483.28 120.422V121.364C483.28 121.788 482.937 122.131 482.51 122.131Z" fill="#E8EBF8"/>
<path d="M457.087 122.131H441.896C441.556 122.131 441.277 121.579 441.277 120.893C441.277 120.21 441.556 119.655 441.896 119.655H457.087C457.427 119.655 457.703 120.21 457.703 120.893C457.703 121.579 457.427 122.131 457.087 122.131Z" fill="#E8EBF8"/>
<path d="M465.172 122.131H459.145C458.805 122.131 458.532 121.579 458.532 120.893C458.532 120.21 458.805 119.655 459.145 119.655H465.172C465.512 119.655 465.788 120.21 465.788 120.893C465.788 121.579 465.512 122.131 465.172 122.131Z" fill="#E8EBF8"/>
<path d="M438.882 127.081H432.475C432.132 127.081 431.856 126.526 431.856 125.843C431.856 125.157 432.132 124.605 432.475 124.605H438.882C439.222 124.605 439.495 125.157 439.495 125.843C439.495 126.526 439.222 127.081 438.882 127.081Z" fill="#FABD41"/>
<path d="M449.814 127.081H441.896C441.556 127.081 441.277 126.526 441.277 125.843C441.277 125.157 441.556 124.605 441.896 124.605H449.814C450.154 124.605 450.43 125.157 450.43 125.843C450.43 126.526 450.154 127.081 449.814 127.081Z" fill="#5FCCF5"/>
<path d="M432.475 107.651C432.132 107.651 431.856 107.096 431.856 106.413C431.856 105.727 432.132 105.175 432.475 105.175H438.882C439.222 105.175 439.495 105.727 439.495 106.413C439.495 107.096 439.222 107.651 438.882 107.651" fill="#5FCCF5"/>
<path d="M484.61 107.651H467.559C467.107 107.651 466.742 107.286 466.742 106.834V105.989C466.742 105.54 467.107 105.175 467.559 105.175H484.61C485.062 105.175 485.428 105.54 485.428 105.989V106.834C485.428 107.286 485.062 107.651 484.61 107.651Z" fill="#E8EBF8"/>
<path d="M457.087 107.651H441.896C441.556 107.651 441.277 107.096 441.277 106.413C441.277 105.727 441.556 105.175 441.896 105.175H457.087C457.427 105.175 457.703 105.727 457.703 106.413C457.703 107.096 457.427 107.651 457.087 107.651Z" fill="#FABD41"/>
<path d="M465.172 107.651H459.145C458.805 107.651 458.532 107.096 458.532 106.413C458.532 105.727 458.805 105.175 459.145 105.175H465.172C465.512 105.175 465.788 105.727 465.788 106.413C465.788 107.096 465.512 107.651 465.172 107.651Z" fill="#FABD41"/>
<path d="M478.539 132.344H441.896C441.556 132.344 441.277 131.789 441.277 131.106C441.277 130.422 441.556 129.868 441.896 129.868H478.539C478.882 129.868 479.155 130.422 479.155 131.106C479.155 131.789 478.882 132.344 478.539 132.344Z" fill="#E8EBF8"/>
<path d="M453.584 137.464H441.896C441.556 137.464 441.277 136.909 441.277 136.226C441.277 135.54 441.556 134.988 441.896 134.988H453.584C453.925 134.988 454.203 135.54 454.203 136.226C454.203 136.909 453.925 137.464 453.584 137.464Z" fill="#E8EBF8"/>
<path d="M472.811 137.464H455.966C455.626 137.464 455.347 136.909 455.347 136.226C455.347 135.54 455.626 134.988 455.966 134.988H472.811C473.151 134.988 473.427 135.54 473.427 136.226C473.427 136.909 473.151 137.464 472.811 137.464Z" fill="#E8EBF8"/>
<path d="M478.539 162.391H441.896C441.556 162.391 441.277 161.839 441.277 161.153C441.277 160.47 441.556 159.915 441.896 159.915H478.539C478.882 159.915 479.155 160.47 479.155 161.153C479.155 161.839 478.882 162.391 478.539 162.391Z" fill="#E8EBF8"/>
<path d="M438.882 167.512H432.475C432.132 167.512 431.856 166.959 431.856 166.273C431.856 165.59 432.132 165.035 432.475 165.035H438.882C439.222 165.035 439.495 165.59 439.495 166.273C439.495 166.959 439.222 167.512 438.882 167.512Z" fill="#F030A2"/>
<path d="M453.584 167.512H441.896C441.556 167.512 441.277 166.959 441.277 166.273C441.277 165.59 441.556 165.035 441.896 165.035H453.584C453.925 165.035 454.203 165.59 454.203 166.273C454.203 166.959 453.925 167.512 453.584 167.512Z" fill="#5FCCF5"/>
<path d="M472.811 167.512H455.966C455.626 167.512 455.347 166.959 455.347 166.273C455.347 165.59 455.626 165.035 455.966 165.035H472.811C473.151 165.035 473.427 165.59 473.427 166.273C473.427 166.959 473.151 167.512 472.811 167.512Z" fill="#E8EBF8"/>
<path d="M438.882 142.585H432.475C432.132 142.585 431.856 142.03 431.856 141.346C431.856 140.66 432.132 140.108 432.475 140.108H438.882C439.222 140.108 439.495 140.66 439.495 141.346C439.495 142.03 439.222 142.585 438.882 142.585Z" fill="#F030A2"/>
<path d="M474.607 142.585H442.025C441.612 142.585 441.277 142.25 441.277 141.84V140.853C441.277 140.44 441.612 140.108 442.025 140.108H474.607C475.02 140.108 475.354 140.44 475.354 140.853V141.84C475.354 142.25 475.02 142.585 474.607 142.585Z" fill="#F030A2"/>
<path d="M438.882 147.705H432.475C432.132 147.705 431.856 147.15 431.856 146.464C431.856 145.781 432.132 145.229 432.475 145.229H438.882C439.222 145.229 439.495 145.781 439.495 146.464C439.495 147.15 439.222 147.705 438.882 147.705Z" fill="#E8EBF8"/>
<path d="M457.087 147.705H441.896C441.556 147.705 441.277 147.15 441.277 146.464C441.277 145.781 441.556 145.229 441.896 145.229H457.087C457.427 145.229 457.703 145.781 457.703 146.464C457.703 147.15 457.427 147.705 457.087 147.705Z" fill="#E8EBF8"/>
<path d="M465.172 147.705H459.145C458.805 147.705 458.532 147.15 458.532 146.464C458.532 145.781 458.805 145.229 459.145 145.229H465.172C465.512 145.229 465.788 145.781 465.788 146.464C465.788 147.15 465.512 147.705 465.172 147.705Z" fill="#E8EBF8"/>
<path d="M438.882 152.653H432.475C432.132 152.653 431.856 152.098 431.856 151.414C431.856 150.731 432.132 150.176 432.475 150.176H438.882C439.222 150.176 439.495 150.731 439.495 151.414C439.495 152.098 439.222 152.653 438.882 152.653Z" fill="#E8EBF8"/>
<path d="M483.35 152.653H442.114C441.654 152.653 441.277 152.279 441.277 151.819V151.013C441.277 150.55 441.654 150.176 442.114 150.176H483.35C483.813 150.176 484.187 150.55 484.187 151.013V151.819C484.187 152.279 483.813 152.653 483.35 152.653Z" fill="#E8EBF8"/>
<path d="M438.882 172.253H432.475C432.132 172.253 431.856 171.698 431.856 171.014C431.856 170.331 432.132 169.776 432.475 169.776H438.882C439.222 169.776 439.495 170.331 439.495 171.014C439.495 171.698 439.222 172.253 438.882 172.253Z" fill="#E8EBF8"/>
<path d="M487.581 172.253H467.361C467.021 172.253 466.742 171.698 466.742 171.014C466.742 170.331 467.021 169.776 467.361 169.776H487.581C487.921 169.776 488.194 170.331 488.194 171.014C488.194 171.698 487.921 172.253 487.581 172.253Z" fill="#E8EBF8"/>
<path d="M457.087 172.253H441.896C441.556 172.253 441.277 171.698 441.277 171.014C441.277 170.331 441.556 169.776 441.896 169.776H457.087C457.427 169.776 457.703 170.331 457.703 171.014C457.703 171.698 457.427 172.253 457.087 172.253Z" fill="#E8EBF8"/>
<path d="M465.172 172.253H459.145C458.805 172.253 458.532 171.698 458.532 171.014C458.532 170.331 458.805 169.776 459.145 169.776H465.172C465.512 169.776 465.788 170.331 465.788 171.014C465.788 171.698 465.512 172.253 465.172 172.253Z" fill="#E8EBF8"/>
<path d="M468.945 177.203H441.958C441.584 177.203 441.277 176.899 441.277 176.525V175.404C441.277 175.03 441.584 174.726 441.958 174.726H468.945C469.319 174.726 469.623 175.03 469.623 175.404V176.525C469.623 176.899 469.319 177.203 468.945 177.203Z" fill="#FABD41"/>
<path d="M485.687 157.773H467.582C467.119 157.773 466.742 157.396 466.742 156.933V156.136C466.742 155.673 467.119 155.296 467.582 155.296H485.687C486.15 155.296 486.526 155.673 486.526 156.136V156.933C486.526 157.396 486.15 157.773 485.687 157.773Z" fill="#F030A2"/>
<path d="M457.087 157.773H441.896C441.556 157.773 441.277 157.218 441.277 156.535C441.277 155.851 441.556 155.296 441.896 155.296H457.087C457.427 155.296 457.703 155.851 457.703 156.535C457.703 157.218 457.427 157.773 457.087 157.773Z" fill="#FABD41"/>
<path d="M465.172 157.773H459.145C458.805 157.773 458.532 157.218 458.532 156.535C458.532 155.851 458.805 155.296 459.145 155.296H465.172C465.512 155.296 465.788 155.851 465.788 156.535C465.788 157.218 465.512 157.773 465.172 157.773Z" fill="#FABD41"/>
<path d="M526.036 68.1248C526.036 79.3026 516.972 88.3636 505.795 88.3636C494.614 88.3636 485.55 79.3026 485.55 68.1248C485.55 56.9443 494.614 47.8832 505.795 47.8832C516.972 47.8832 526.036 56.9443 526.036 68.1248Z" fill="#FABC29"/>
<path d="M504.328 66.2256L496.287 69.1706L504.328 72.0906V75.1109L492.832 70.7408V67.6005L504.328 63.2332V66.2256Z" fill="#FBFDFE"/>
<path d="M506.952 63.2332L518.445 67.6005V70.7408L506.952 75.1109V72.0906L514.992 69.1706L506.952 66.2256V63.2332Z" fill="#FBFDFE"/>
<path d="M232.282 0.291214H94.5346C83.3456 0.291214 74.2762 9.36061 74.2762 20.5468C74.2762 31.7357 83.3456 40.8051 94.5346 40.8051H104.664L114.455 50.594L124.244 40.8051H232.282C243.468 40.8051 252.538 31.7357 252.538 20.5468C252.538 9.36061 243.468 0.291214 232.282 0.291214Z" fill="#84B6E5"/>
<path d="M192.867 27.0058H102.226C100.974 27.0058 99.959 25.9906 99.959 24.7384C99.959 23.489 100.974 22.4738 102.226 22.4738H192.867C194.117 22.4738 195.132 23.489 195.132 24.7384C195.132 25.9906 194.117 27.0058 192.867 27.0058Z" fill="white"/>
<path d="M164.541 14.5423H102.226C100.974 14.5423 99.959 13.5272 99.959 12.2777C99.959 11.0256 100.974 10.0104 102.226 10.0104H164.541C165.793 10.0104 166.805 11.0256 166.805 12.2777C166.805 13.5272 165.793 14.5423 164.541 14.5423Z" fill="white"/>
<path d="M449.836 286.259C449.836 286.259 448.152 291.259 447.22 294.282C447.22 294.282 455.481 294.109 458.387 290.272L455.305 282.884L449.836 286.259Z" fill="#F6CE9B"/>
<path d="M448.595 424.171L449.303 427.314L453.863 427.571L452.898 423.719L448.595 424.171Z" fill="#F68965"/>
<path d="M449.303 427.314C449.303 427.314 441.662 431.297 441.723 431.553C441.79 431.812 454.633 430.46 454.633 430.46L453.863 427.571L449.303 427.314Z" fill="#5149A7"/>
<path d="M487.134 417.829L488.922 420.512L493.27 419.109L490.983 415.863L487.134 417.829Z" fill="#F68965"/>
<path d="M488.922 420.512L483.378 427.194L495.03 421.527L493.27 419.109L488.922 420.512Z" fill="#5149A7"/>
<path d="M440.12 341.001C440.12 341.001 427.02 383.774 447.828 425.002H453.992C453.992 425.002 441.662 378.381 457.073 340.619L440.12 341.001Z" fill="#FABC29"/>
<path d="M451.493 342.516C451.493 342.516 453.526 387.202 486.975 419.045L492.782 416.973C492.782 416.973 465.504 377.201 467.333 336.456L451.493 342.516Z" fill="#FABC29"/>
<path d="M445.494 241.829L445.511 239.191L445.466 238.848L444.964 236.963L443.458 237.345L441.93 235.928C441.28 235.334 440.24 235.529 439.866 236.324C439.392 237.325 438.854 238.619 438.684 239.607C438.617 239.997 438.748 240.393 439.015 240.689L441.358 243.252C441.696 243.62 442.211 243.765 442.691 243.623L444.56 243.07C445.112 242.906 445.491 242.404 445.494 241.829Z" fill="#F68965"/>
<path d="M468.092 299.668C468.092 299.668 451.005 281.356 449.881 274.501C448.754 267.649 446.255 242.15 446.255 242.15L440.987 243.168C440.987 243.168 439.177 279.635 440.775 283.835C442.379 288.035 452.65 309.44 459.343 311.414C466.034 313.392 470.736 306.793 468.092 299.668Z" fill="#EF316F"/>
<path d="M444.359 269.461C444.359 269.461 440.505 282.285 442.945 285.517C445.388 288.749 454.374 285.821 457.862 280.65C461.351 275.477 462.051 263.836 456.119 262.869C450.188 261.898 445.756 264.288 444.359 269.461Z" fill="#F68965"/>
<path d="M467.479 344.471C467.479 344.471 470.945 307.482 470.945 297.462C470.945 297.004 470.936 296.575 470.93 296.142C468.35 289.628 461.947 289.756 459.384 290.269C456.815 290.782 446.798 293.995 446.862 294.38L446.834 294.346C443.384 296.851 440.746 299.824 440.503 300.543C440.503 300.543 431.256 319.812 439.349 342.931L467.477 344.471" fill="#EF316F"/>
<path d="M418.506 243.717L418.057 241.121L417.954 240.792L417.128 239.021L415.717 239.662L413.957 238.538C413.218 238.064 412.228 238.441 411.997 239.291C411.71 240.36 411.403 241.729 411.411 242.727C411.413 243.126 411.609 243.491 411.927 243.731L414.683 245.845C415.081 246.152 415.614 246.202 416.06 245.979L417.803 245.106C418.319 244.85 418.604 244.286 418.506 243.717Z" fill="#F68965"/>
<path d="M450.907 296.692C450.907 296.692 430.872 281.665 428.563 275.112C426.248 268.563 419.312 243.901 419.312 243.901L414.303 245.829C414.303 245.829 418.927 282.05 421.239 285.902C423.551 289.756 437.423 309.021 444.359 309.794C451.295 310.564 454.761 303.24 450.907 296.692Z" fill="#EF316F"/>
<path d="M458.615 262.782C458.615 262.782 448.338 258.417 443.458 267.409C440.889 273.059 449.111 267.663 450.65 269.461C452.193 271.26 448.595 274.858 449.624 276.141C450.65 277.424 452.449 273.829 453.478 275.884C454.505 277.94 451.936 278.196 450.137 280.508C448.339 282.82 451.68 286.158 449.111 288.217C446.542 290.269 439.35 291.811 443.715 302.858C448.085 313.902 436.522 316.727 441.405 331.885C446.286 347.039 479.423 355.517 485.589 337.535C491.753 319.555 471.204 315.185 472.487 307.223C473.773 299.26 478.397 297.205 472.231 289.243C466.065 281.278 462.21 276.654 464.012 271.517C465.808 266.377 460.927 262.782 458.615 262.782Z" fill="#5149A7"/>
<path d="M158.52 379.87L157.228 377.282L192.242 359.776L236.418 360.498L284.384 342.432H321.018L360.132 329.391L360.453 329.428L391.822 332.992L409.504 323.797L410.837 326.363L392.374 335.965L391.934 335.914L360.445 332.336L321.253 345.321H284.649L236.926 363.402L236.65 363.395L192.906 362.679L158.52 379.87Z" fill="#FBFDFE"/>
<path d="M287.036 310.5C287.036 310.5 321.735 366.701 317.396 405.801L341.012 406.286L330.891 400.424L333.783 399.933C333.783 399.933 325.107 339.334 316.913 317.829C308.332 295.306 305.83 303.656 305.83 303.656L287.036 310.5Z" fill="#5149A7"/>
<path d="M274.503 307.008C274.503 307.008 276.433 346.046 273.541 360.984C270.649 375.926 261.973 405.324 261.973 405.324L284.141 405.806L278.321 401.695L274.623 399.542C274.623 399.542 290.408 357.129 291.852 336.891C293.3 316.646 295.709 305.078 295.709 305.078L274.503 307.008Z" fill="#5149A7"/>
<path d="M319.867 191.462L323.481 188.933L325.107 182.968L323.3 182.608L322.218 184.775L323.3 174.475L321.493 174.835L319.688 184.775L317.516 189.474L319.504 190.74" fill="#F6CE9B"/>
<path d="M341.252 202.186L341.734 197.849L347.036 192.547L348.24 194.235L346.311 196.404L356.431 193.992V196.162L347.036 199.776L345.109 203.151L341.252 202.186Z" fill="#F6CE9B"/>
<path d="M317.359 187.817C317.359 187.817 276.201 237.763 271.407 247.753C271.407 247.753 269.408 251.348 269.408 261.736C269.408 272.128 273.005 310.486 273.005 310.486L314.961 312.881C314.961 312.881 301.374 266.134 300.978 264.935C300.576 263.736 293.782 256.543 287.388 254.945L322.552 191.412L317.359 187.817Z" fill="#84B6E5"/>
<path d="M291.297 250.118C291.297 250.118 293.046 255.308 294.008 258.443C294.008 258.443 285.446 258.261 282.432 254.282L285.63 246.621L291.297 250.118Z" fill="#F6CE9B"/>
<path d="M297.809 233.909C297.809 233.909 300.342 248.662 297.809 252.011C295.277 255.364 286.593 249.666 282.973 244.3C279.358 238.94 278.633 226.867 284.786 225.863C290.935 224.859 296.362 228.546 297.809 233.909Z" fill="#F6CE9B"/>
<path d="M293.916 261.215C293.916 261.215 326.911 240.46 329.572 236.201C332.235 231.946 339.684 200.278 339.684 200.278L346.071 201.876C346.071 201.876 342.348 237.267 341.282 240.993C340.217 244.719 307.752 279.309 300.3 279.309C292.851 279.309 290.19 269.732 293.916 261.215Z" fill="#84B6E5"/>
<path d="M295.47 230.621C295.47 230.621 297.154 224.837 293.542 221.945C289.928 219.055 283.662 219.538 282.697 220.5C282.697 222.187 286.554 223.15 285.589 224.114C284.624 225.079 279.565 224.114 278.36 229.176C277.155 234.235 278.842 235.2 278.842 235.2C278.842 235.2 276.19 238.332 279.322 242.669C282.457 247.005 289.535 250.581 291.297 250.118C293.06 249.655 292.095 242.909 292.095 242.909C292.095 242.909 287.998 242.429 287.756 239.777C287.516 237.127 289.685 236.885 290.648 237.85C291.613 238.815 291.852 240.982 292.578 240.499C293.3 240.017 292.335 234.958 292.335 234.958C292.335 234.958 294.987 232.791 295.47 230.621Z" fill="#5149A7"/>
<path d="M196.911 360.501C196.911 363.033 194.861 365.08 192.332 365.08C189.802 365.08 187.755 363.033 187.755 360.501C187.755 357.974 189.802 355.925 192.332 355.925C194.861 355.925 196.911 357.974 196.911 360.501Z" fill="#FABC29"/>
<path d="M365.11 331.104C365.11 333.633 363.058 335.683 360.531 335.683C358.001 335.683 355.952 333.633 355.952 331.104C355.952 328.577 358.001 326.527 360.531 326.527C363.058 326.527 365.11 328.577 365.11 331.104Z" fill="#EF316F"/>
<mask id="mask0_51_872" style="mask-type:luminance" maskUnits="userSpaceOnUse" x="411" y="485" width="47" height="27">
<path d="M455.405 511.63L411.418 486.23L413.112 485.244L413.119 485.248L457.099 510.646L455.405 511.63Z" fill="white"/>
</mask>
<g mask="url(#mask0_51_872)">
<path d="M455.405 511.63L411.418 486.23L413.112 485.244L413.119 485.248L457.099 510.646L455.405 511.63Z" fill="url(#paint0_radial_51_872)"/>
</g>
<path d="M485.083 508.086C485.094 509.591 484.097 511.102 482.116 512.253L461.594 524.095L461.587 519.396C461.587 518.606 461.089 517.827 460.122 517.195L467.291 513.055C468.076 512.6 468.473 512 468.473 511.393L468.445 501.76C468.445 501.166 468.06 500.568 467.28 500.116L387.611 453.821C386.044 452.905 383.472 452.912 381.91 453.821L362.99 464.742C362.984 463.352 362.984 461.978 362.979 460.781C362.979 460.451 362.756 460.117 362.327 459.875C361.452 459.356 360.033 459.356 359.157 459.866L345.631 467.672C345.184 467.934 344.965 468.27 344.965 468.603L344.984 475.136L335.119 480.837C334.322 481.293 333.931 481.891 333.931 482.503L333.945 488.266L325.555 483.386C323.607 482.258 322.642 480.768 322.635 479.282C322.646 482.503 322.653 485.713 322.659 488.926C322.671 490.412 323.643 491.904 325.587 493.029L421.4 548.719C425.327 550.996 431.752 550.991 435.687 548.719L482.143 521.893C484.131 520.746 485.115 519.237 485.115 517.722C485.104 514.511 485.094 511.301 485.083 508.086Z" fill="#BBBABB"/>
<path d="M467.28 500.116L387.611 453.821C386.044 452.905 383.472 452.912 381.91 453.821L335.119 480.837C333.543 481.742 333.533 483.224 335.088 484.136L414.772 530.434C416.337 531.346 418.888 531.346 420.473 530.434L467.266 503.423C468.828 502.51 468.844 501.029 467.28 500.116Z" fill="#8FD6F4"/>
<path d="M451.649 517.036C453.933 515.722 457.622 515.706 459.897 517.029C462.164 518.357 462.146 520.494 459.864 521.81L451.433 526.676C449.14 527.989 445.457 528.001 443.181 526.685C440.911 525.36 440.936 523.22 443.224 521.904L451.649 517.036Z" fill="#9EB5CE"/>
<path d="M345.631 467.672C344.745 468.189 344.745 469.011 345.614 469.524C346.485 470.018 347.903 470.018 348.792 469.509L362.323 461.697C363.19 461.202 363.199 460.374 362.327 459.875C361.452 459.356 360.033 459.356 359.157 459.866L345.631 467.672ZM459.864 521.81C462.146 520.494 462.164 518.357 459.897 517.029C457.622 515.706 453.933 515.722 451.649 517.036L443.224 521.904C440.936 523.22 440.911 525.36 443.181 526.685C445.457 528.001 449.14 527.989 451.433 526.676L459.864 521.81ZM467.28 500.116L387.611 453.821C386.044 452.905 383.472 452.912 381.91 453.821L335.119 480.837C333.543 481.742 333.533 483.224 335.088 484.136L414.772 530.434C416.337 531.346 418.888 531.346 420.473 530.434L467.266 503.423C468.828 502.51 468.844 501.029 467.28 500.116ZM372.059 448.296C376.002 446.02 382.426 446.02 386.343 448.296L482.162 503.98C486.087 506.257 486.055 509.976 482.116 512.253L435.655 539.081C431.713 541.347 425.298 541.353 421.37 539.077L325.555 483.386C321.646 481.112 321.663 477.385 325.594 475.117L372.059 448.296Z" fill="#FAFBFE"/>
<path d="M359.157 459.866C360.033 459.356 361.452 459.356 362.328 459.875C363.199 460.374 363.19 461.202 362.323 461.697L348.792 469.509C347.904 470.018 346.485 470.018 345.614 469.524C344.745 469.011 344.745 468.189 345.631 467.672L359.157 459.866Z" fill="#9EB5CE"/>
<path d="M384.888 217.465C384.888 225.276 378.307 231.605 370.189 231.605C362.072 231.605 355.491 225.276 355.491 217.465C355.491 209.658 362.072 203.325 370.189 203.325C378.307 203.325 384.888 209.658 384.888 217.465Z" fill="#FABC29"/>
<path d="M368.218 217.801C368.218 219.087 368.763 219.73 369.851 219.73C370.421 219.73 370.856 219.536 371.155 219.15C371.451 218.762 371.632 218.133 371.696 217.26L371.819 215.24C371.496 215.173 371.132 215.139 370.725 215.139C369.934 215.139 369.318 215.376 368.877 215.852C368.438 216.328 368.218 216.977 368.218 217.801ZM377.95 216.657C377.95 217.535 377.805 218.338 377.513 219.067C377.222 219.795 376.809 220.367 376.277 220.781C375.745 221.197 375.127 221.404 374.424 221.404C373.955 221.404 373.54 221.294 373.178 221.079C372.816 220.861 372.558 220.578 372.4 220.224H372.247C371.563 221.009 370.692 221.404 369.633 221.404C368.513 221.404 367.628 221.079 366.98 220.43C366.336 219.78 366.011 218.891 366.011 217.763C366.011 216.477 366.435 215.441 367.284 214.654C368.136 213.87 369.243 213.476 370.613 213.476C371.158 213.476 371.758 213.525 372.415 213.627C373.068 213.726 373.61 213.848 374.035 213.988L373.817 218.458C373.817 219.306 374.056 219.73 374.537 219.73C374.943 219.73 375.266 219.444 375.508 218.875C375.749 218.304 375.869 217.559 375.869 216.637C375.869 215.658 375.656 214.791 375.23 214.037C374.808 213.284 374.209 212.711 373.44 212.314C372.669 211.919 371.791 211.72 370.802 211.72C369.523 211.72 368.41 211.973 367.466 212.478C366.521 212.984 365.798 213.715 365.294 214.669C364.792 215.622 364.538 216.723 364.538 217.975C364.538 219.656 365.007 220.948 365.94 221.847C366.876 222.745 368.229 223.196 370.005 223.196C370.675 223.196 371.412 223.124 372.219 222.981C373.023 222.837 373.817 222.627 374.595 222.354V224.11C373.238 224.663 371.733 224.942 370.081 224.942C367.673 224.942 365.795 224.333 364.449 223.114C363.101 221.894 362.429 220.199 362.429 218.029C362.429 216.524 362.774 215.155 363.461 213.929C364.148 212.699 365.126 211.736 366.398 211.037C367.667 210.34 369.129 209.99 370.785 209.99C372.178 209.99 373.423 210.267 374.519 210.815C375.615 211.362 376.462 212.144 377.056 213.155C377.651 214.168 377.95 215.335 377.95 216.657Z" fill="white"/>
<path opacity="0.2" d="M568.519 298.303H568.236L567.309 297.923H567.052L566.048 297.542H565.842L564.76 297.162H564.606L563.447 296.807L562.186 296.477L560.847 296.172" fill="url(#paint1_linear_51_872)"/>
<path d="M556.625 220.267C549.262 227.142 530.726 247.438 530.083 277.754C529.931 281.698 530.581 285.632 531.994 289.325C533.406 293.018 535.553 296.396 538.309 299.26C541.064 302.125 544.373 304.418 548.04 306.005C551.707 307.592 555.658 308.441 559.663 308.502C567.463 308.455 574.928 305.369 580.427 299.917C585.926 294.465 589.012 287.09 589.012 279.403C589.012 248.199 569.961 227.294 562.469 220.267C561.669 219.552 560.627 219.156 559.547 219.156C558.467 219.156 557.425 219.552 556.625 220.267Z" fill="#9DCC4A"/>
<path d="M559.153 295.619C560.025 333.383 555.423 340.906 555.423 340.906C555.423 340.906 557.452 338.738 558.799 338.719C559.769 338.705 560.308 340.192 561.278 340.225C562.241 340.257 562.877 338.99 563.836 338.898C564.722 338.813 566.394 339.651 566.394 339.651C566.394 339.651 558.281 257.855 559.153 295.619Z" fill="#784421"/>
<path d="M579.277 345.964C579.277 346.95 578.767 347.925 577.774 348.835C576.782 349.745 575.328 350.572 573.495 351.269C571.662 351.965 569.486 352.518 567.091 352.895C564.696 353.272 562.129 353.466 559.537 353.466C556.944 353.466 554.377 353.272 551.982 352.895C549.587 352.518 547.411 351.965 545.578 351.269C543.745 350.572 542.291 349.745 541.299 348.835C540.307 347.925 539.796 346.95 539.796 345.964C539.796 344.979 540.307 344.004 541.299 343.094C542.291 342.184 543.745 341.357 545.578 340.66C547.411 339.964 549.587 339.411 551.982 339.034C554.377 338.657 556.944 338.463 559.537 338.463C562.129 338.463 564.696 338.657 567.091 339.034C569.486 339.411 571.662 339.964 573.495 340.66C575.328 341.357 576.782 342.184 577.774 343.094C578.767 344.004 579.277 344.979 579.277 345.964Z" fill="#DBE3E2"/>
<defs>
<radialGradient id="paint0_radial_51_872" cx="0" cy="0" r="1" gradientUnits="userSpaceOnUse" gradientTransform="translate(613.774 260.391) scale(449.911 449.911)">
<stop stop-color="#72C8E3"/>
<stop offset="1" stop-color="#61C2E2"/>
</radialGradient>
<linearGradient id="paint1_linear_51_872" x1="8773.52" y1="1937.07" x2="9020.4" y2="1937.07" gradientUnits="userSpaceOnUse">
<stop stop-color="#009500"/>
<stop offset="1" stop-color="#00DA29"/>
</linearGradient>
</defs>
</svg>
