<svg width="1105" height="911" viewBox="0 0 1105 911" fill="none" xmlns="http://www.w3.org/2000/svg">
<path opacity="0.1" d="M882.9 818.5C729.4 810.3 290.1 792.1 138.3 828.3C110.3 830.5 76.8999 834.1 75.7999 853.9C74.5999 876.7 109.5 878.7 135.3 877.1C147.1 876.3 163.6 876 178.5 873.8C271.9 880.6 418.4 879 523.3 871.2C567.5 867.9 626 866.5 688.7 865.7C659.5 869.8 637.5 877.7 632.2 891.6C624.3 912 716.3 914.9 771.9 906.1C827.5 897.3 953.2 907.8 958.6 890.6C963.9 873.4 945.2 876.5 887.8 870.1C874.1 868.5 853.4 866.5 829.5 864.8C968.2 864.1 1093.1 862.6 1102.3 848.6C1118.8 823.3 1060.9 827.9 882.9 818.5Z" fill="#231F20"/>
<path fill-rule="evenodd" clip-rule="evenodd" d="M999.1 359.4H1073.4V844.6H999.1V359.4ZM1048.6 395C1048.6 388.2 1043.1 382.7 1036.3 382.7C1029.4 382.7 1023.9 388.2 1023.9 395C1023.9 401.9 1029.4 407.4 1036.3 407.4C1043.1 407.4 1048.6 401.9 1048.6 395Z" fill="#BFC5FF"/>
<path d="M999.1 359.4H1014.1V844.6H999.1V359.4Z" fill="#8F98F8"/>
<path d="M1026.9 437.8C1026.9 436.2 1025.6 434.8 1024 434.8H999.1V440.8H1024C1025.6 440.8 1026.9 439.4 1026.9 437.8Z" fill="#474BCA"/>
<path d="M1026.9 539C1026.9 537.4 1025.6 536.1 1024 536.1H999.1V542H1024C1025.6 542 1026.9 540.7 1026.9 539Z" fill="#474BCA"/>
<path d="M1017.6 463.1C1017.6 461.5 1016.3 460.1 1014.6 460.1H999.1V466.1H1014.6C1016.3 466.1 1017.6 464.7 1017.6 463.1Z" fill="#474BCA"/>
<path d="M1017.6 488.4C1017.6 486.8 1016.3 485.4 1014.6 485.4H999.1V491.4H1014.6C1016.3 491.4 1017.6 490 1017.6 488.4Z" fill="#474BCA"/>
<path d="M1017.6 513.7C1017.6 512.1 1016.3 510.8 1014.6 510.8H999.1V516.7H1014.6C1016.3 516.7 1017.6 515.3 1017.6 513.7Z" fill="#474BCA"/>
<path d="M1026.9 640.3C1026.9 638.6 1025.6 637.3 1024 637.3H999.1V643.2H1024C1025.6 643.2 1026.9 641.9 1026.9 640.3Z" fill="#474BCA"/>
<path d="M1017.6 564.3C1017.6 562.7 1016.3 561.4 1014.6 561.4H999.1V567.3H1014.6C1016.3 567.3 1017.6 566 1017.6 564.3Z" fill="#474BCA"/>
<path d="M1017.6 589.6C1017.6 588 1016.3 586.7 1014.6 586.7H999.1V592.6H1014.6C1016.3 592.6 1017.6 591.3 1017.6 589.6Z" fill="#474BCA"/>
<path d="M1017.6 614.9C1017.6 613.3 1016.3 612 1014.6 612H999.1V617.9H1014.6C1016.3 617.9 1017.6 616.6 1017.6 614.9Z" fill="#474BCA"/>
<path d="M1026.9 743.2V739.8C1026.9 739.1 1026.4 738.5 1025.7 738.5H999.1V744.4H1025.7C1026.4 744.4 1026.9 743.9 1026.9 743.2Z" fill="#474BCA"/>
<path d="M1017.6 665.6C1017.6 663.9 1016.3 662.6 1014.6 662.6H999.1V668.5H1014.6C1016.3 668.5 1017.6 667.2 1017.6 665.6Z" fill="#474BCA"/>
<path d="M1017.6 690.9C1017.6 689.2 1016.3 687.9 1014.6 687.9H999.1V693.8H1014.6C1016.3 693.8 1017.6 692.5 1017.6 690.9Z" fill="#474BCA"/>
<path d="M1017.6 716.2C1017.6 714.5 1016.3 713.2 1014.6 713.2H999.1V719.1H1014.6C1016.3 719.1 1017.6 717.8 1017.6 716.2Z" fill="#474BCA"/>
<path d="M1017.6 766.8C1017.6 765.2 1016.3 763.8 1014.6 763.8H999.1V769.8H1014.6C1016.3 769.8 1017.6 768.4 1017.6 766.8Z" fill="#474BCA"/>
<path d="M1017.6 792.1C1017.6 790.5 1016.3 789.1 1014.6 789.1H999.1V795.1H1014.6C1016.3 795.1 1017.6 793.7 1017.6 792.1Z" fill="#474BCA"/>
<path d="M1017.6 817.4C1017.6 815.8 1016.3 814.4 1014.6 814.4H999.1V820.4H1014.6C1016.3 820.4 1017.6 819 1017.6 817.4Z" fill="#474BCA"/>
<path d="M968.3 649.2H193.5V206.7C193.5 199.7 199.2 194.1 206.2 194.1H955.7C962.7 194.1 968.3 199.7 968.3 206.7V649.2Z" fill="#2CC55D"/>
<path d="M230.7 612.1V231.2H931.2V612.1H230.7Z" fill="white"/>
<path d="M968.3 649.2H193.5V729C193.5 736 199.2 741.6 206.2 741.6H955.7C962.7 741.6 968.3 736 968.3 729V649.2Z" fill="#9BFFBB"/>
<path d="M707.5 819.1H454.4C447.3 819.1 441.6 824.8 441.6 831.8C441.6 838.8 447.3 844.6 454.4 844.6H707.5C714.5 844.6 720.2 838.8 720.2 831.8C720.2 824.8 714.5 819.1 707.5 819.1Z" fill="#9BFFBB"/>
<path d="M658.3 741.6H503.6L490 819.1H671.9L658.3 741.6Z" fill="#2CC55D"/>
<path d="M601.5 697C601.5 708.4 592.3 717.6 580.9 717.6C569.6 717.6 560.4 708.4 560.4 697C560.4 685.6 569.6 676.4 580.9 676.4C592.3 676.4 601.5 685.6 601.5 697Z" fill="#2CC55D"/>
<path d="M318.5 612.1V75.3H843.3V612.1H318.5Z" fill="#EF7C59"/>
<path d="M318.5 75.3V45C318.5 41 321.8 37.8 325.7 37.8H836.1C840.1 37.8 843.3 41 843.3 45V75.3H318.5Z" fill="#EF7C59"/>
<path d="M348.2 75.3V612.1H813.6V75.3H348.2Z" fill="white"/>
<path d="M348.2 75.3V308.3H813.6V75.3H348.2Z" fill="white"/>
<path d="M348.2 308.3V484H813.6V308.3H348.2Z" fill="#EDEFFF"/>
<path d="M370.6 56.2C370.6 62.4 365.6 67.4 359.4 67.4C353.2 67.4 348.2 62.4 348.2 56.2C348.2 50 353.2 45 359.4 45C365.6 45 370.6 50 370.6 56.2Z" fill="white"/>
<path d="M545.1 61.8H391.1C388 61.8 385.5 59.3 385.5 56.2C385.5 53.1 388 50.6 391.1 50.6H545.1C548.2 50.6 550.7 53.1 550.7 56.2C550.7 59.3 548.2 61.8 545.1 61.8Z" fill="white"/>
<path d="M468.8 440.8H388.4C385.3 440.8 382.8 438.3 382.8 435.2C382.8 432.1 385.3 429.6 388.4 429.6H468.8C471.9 429.6 474.4 432.1 474.4 435.2C474.4 438.3 471.9 440.8 468.8 440.8Z" fill="#BFC5FF"/>
<path d="M468.8 464.1H388.4C385.3 464.1 382.8 461.6 382.8 458.5C382.8 455.4 385.3 452.9 388.4 452.9H468.8C471.9 452.9 474.4 455.4 474.4 458.5C474.4 461.6 471.9 464.1 468.8 464.1Z" fill="#BFC5FF"/>
<path d="M748.9 162.6H635.1C632.1 162.6 629.5 160.1 629.5 157C629.5 153.9 632.1 151.4 635.1 151.4H748.9C752 151.4 754.5 153.9 754.5 157C754.5 160.1 752 162.6 748.9 162.6Z" fill="#BFC5FF"/>
<path d="M715.5 185.6H635.1C632.1 185.6 629.5 183.1 629.5 180C629.5 176.9 632.1 174.4 635.1 174.4H715.5C718.6 174.4 721.1 176.9 721.1 180C721.1 183.1 718.6 185.6 715.5 185.6Z" fill="#BFC5FF"/>
<path d="M727.7 208.6H635.1C632.1 208.6 629.5 206.1 629.5 203C629.5 199.9 632.1 197.4 635.1 197.4H727.7C730.8 197.4 733.3 199.9 733.3 203C733.3 206.1 730.8 208.6 727.7 208.6Z" fill="#BFC5FF"/>
<path d="M723.1 245.9H639.7C634.1 245.9 629.5 241.4 629.5 235.8C629.5 230.1 634.1 225.6 639.7 225.6H723.1C728.7 225.6 733.3 230.1 733.3 235.8C733.3 241.4 728.7 245.9 723.1 245.9Z" fill="#FFA3BE"/>
<path d="M733.7 592.7H650.3C644.7 592.7 640.2 588.2 640.2 582.6C640.2 577 644.7 572.4 650.3 572.4H733.7C739.4 572.4 743.9 577 743.9 582.6C743.9 588.2 739.4 592.7 733.7 592.7Z" fill="#FFA3BE"/>
<path d="M615 592.7H428.3C422.7 592.7 418.1 588.2 418.1 582.6C418.1 577 422.7 572.4 428.3 572.4H615C620.6 572.4 625.2 577 625.2 582.6C625.2 588.2 620.6 592.7 615 592.7Z" fill="#E9E6E6"/>
<path d="M621.1 440.8H540.7C537.6 440.8 535.1 438.3 535.1 435.2C535.1 432.1 537.6 429.6 540.7 429.6H621.1C624.2 429.6 626.7 432.1 626.7 435.2C626.7 438.3 624.2 440.8 621.1 440.8Z" fill="#BFC5FF"/>
<path d="M621.1 464.1H540.7C537.6 464.1 535.1 461.6 535.1 458.5C535.1 455.4 537.6 452.9 540.7 452.9H621.1C624.2 452.9 626.7 455.4 626.7 458.5C626.7 461.6 624.2 464.1 621.1 464.1Z" fill="#BFC5FF"/>
<path d="M639 526.8H522.8C519.7 526.8 517.2 524.3 517.2 521.2C517.2 518.1 519.7 515.6 522.8 515.6H639C642.1 515.6 644.6 518.1 644.6 521.2C644.6 524.3 642.1 526.8 639 526.8Z" fill="#BFC5FF"/>
<path d="M621.1 550.1H540.7C537.6 550.1 535.1 547.6 535.1 544.5C535.1 541.4 537.6 538.9 540.7 538.9H621.1C624.2 538.9 626.7 541.4 626.7 544.5C626.7 547.6 624.2 550.1 621.1 550.1Z" fill="#BFC5FF"/>
<path d="M773.5 440.8H693.1C690 440.8 687.5 438.3 687.5 435.2C687.5 432.1 690 429.6 693.1 429.6H773.5C776.6 429.6 779.1 432.1 779.1 435.2C779.1 438.3 776.6 440.8 773.5 440.8Z" fill="#BFC5FF"/>
<path d="M773.5 464.1H693.1C690 464.1 687.5 461.6 687.5 458.5C687.5 455.4 690 452.9 693.1 452.9H773.5C776.6 452.9 779.1 455.4 779.1 458.5C779.1 461.6 776.6 464.1 773.5 464.1Z" fill="#BFC5FF"/>
<path d="M808 61.8H774.5C771.4 61.8 768.9 59.3 768.9 56.2C768.9 53.1 771.4 50.6 774.5 50.6H808C811.1 50.6 813.6 53.1 813.6 56.2C813.6 59.3 811.1 61.8 808 61.8Z" fill="white"/>
<path d="M484.5 412.6H372.7C371.5 412.6 370.6 411.7 370.6 410.6V337.2C370.6 336.1 371.5 335.2 372.7 335.2H484.5C485.6 335.2 486.5 336.1 486.5 337.2V410.6C486.5 411.7 485.6 412.6 484.5 412.6Z" fill="#FFA3BE"/>
<path d="M636.9 412.6H525C523.9 412.6 523 411.7 523 410.6V337.2C523 336.1 523.9 335.2 525 335.2H636.9C638 335.2 638.9 336.1 638.9 337.2V410.6C638.9 411.7 638 412.6 636.9 412.6Z" fill="#BFC5FF"/>
<path d="M789.2 412.6H677.4C676.2 412.6 675.3 411.7 675.3 410.6V337.2C675.3 336.1 676.2 335.2 677.4 335.2H789.2C790.3 335.2 791.3 336.1 791.3 337.2V410.6C791.3 411.7 790.3 412.6 789.2 412.6Z" fill="#FFA3BE"/>
<path d="M536.7 290.8C536.7 293.2 534.7 295.2 532.2 295.2C529.8 295.2 527.8 293.2 527.8 290.8C527.8 288.3 529.8 286.3 532.2 286.3C534.7 286.3 536.7 288.3 536.7 290.8Z" fill="#DAB3FF"/>
<path d="M561 290.8C561 293.2 559 295.2 556.6 295.2C554.1 295.2 552.1 293.2 552.1 290.8C552.1 288.3 554.1 286.3 556.6 286.3C559 286.3 561 288.3 561 290.8Z" fill="#DAB3FF"/>
<path d="M585.4 290.8C585.4 293.2 583.4 295.2 580.9 295.2C578.5 295.2 576.5 293.2 576.5 290.8C576.5 288.3 578.5 286.3 580.9 286.3C583.4 286.3 585.4 288.3 585.4 290.8Z" fill="#DAB3FF"/>
<path d="M609.7 290.8C609.7 293.2 607.7 295.2 605.3 295.2C602.8 295.2 600.8 293.2 600.8 290.8C600.8 288.3 602.8 286.3 605.3 286.3C607.7 286.3 609.7 288.3 609.7 290.8Z" fill="#DAB3FF"/>
<path d="M634.1 290.8C634.1 293.2 632.1 295.2 629.6 295.2C627.2 295.2 625.2 293.2 625.2 290.8C625.2 288.3 627.2 286.3 629.6 286.3C632.1 286.3 634.1 288.3 634.1 290.8Z" fill="#DAB3FF"/>
<path d="M348.2 308.3H738.4C734.8 300.8 730.1 294 723.8 288.5C708.9 275.4 688.3 271.8 668.9 267.7C645.6 262.6 622.6 256 600.1 247.7C588.7 243.5 576.8 238.5 569.4 228.8C562.5 219.7 560.6 207.8 559.5 196.4C557.6 176.7 557.5 156.9 554.6 137.3C551.6 117.8 545.4 98.2 532.7 83C530.433 80.2667 527.967 77.7 525.3 75.3H348.2V308.3Z" fill="#FFF2F6"/>
<path d="M532.2 204.2C532.2 238.6 504.4 266.5 470 266.5C435.6 266.5 407.7 238.6 407.7 204.2C407.7 169.8 435.6 141.9 470 141.9C504.4 141.9 532.2 169.8 532.2 204.2Z" fill="#8F98F8"/>
<path d="M576.5 156.8C576.5 178.7 558.7 196.5 536.8 196.5C514.9 196.5 497.2 178.7 497.2 156.8C497.2 134.9 514.9 117.2 536.8 117.2C558.7 117.2 576.5 134.9 576.5 156.8Z" fill="#FF5E85"/>
<path d="M904.1 715.1C894.4 715.1 886.4 707.4 886.4 697.9V526.3C886.4 516.8 894.4 509.1 904.1 509.1H1087.3C1097.1 509.1 1105 516.8 1105 526.3V697.9C1105 707.4 1097.1 715.1 1087.3 715.1H904.1Z" fill="white"/>
<path d="M908.4 524.1C904.7 524.1 901.8 526.9 901.8 530.3V693.9C901.8 697.3 904.7 700.1 908.4 700.1H1083C1086.7 700.1 1089.6 697.3 1089.6 693.9V554.4V530.3C1089.6 526.9 1086.7 524.1 1083 524.1H908.4Z" fill="#40947D"/>
<path d="M901.8 659.8V693.9C901.8 697.3 904.7 700.1 908.4 700.1H1030.7L953.8 575.4L901.8 659.8Z" fill="#6FC183"/>
<path d="M1088.2 697.7L1037.6 615.6L985.6 700.1H1083C1085.1 700.1 1087 699.2 1088.2 697.7Z" fill="#6FC183"/>
<path d="M1067.1 564.2C1067.1 573.9 1059.3 581.8 1049.5 581.8C1039.8 581.8 1032 573.9 1032 564.2C1032 554.5 1039.8 546.6 1049.5 546.6C1059.3 546.6 1067.1 554.5 1067.1 564.2Z" fill="#FEF6F7"/>
<path d="M1043.9 119.1C1043.9 78.2 1010.8 45.1 969.9 45.1C929 45.1 895.8 78.2 895.8 119.1C895.8 132 899.5 144.7 906 155.9C909.3 161.5 913.3 166.5 917.7 171.2C922 175.7 927.7 178.6 931.7 183.3C935.2 187.3 935.7 192.2 937.3 197C939.4 202.9 945 206.9 951.2 206.9H988.6C994.8 206.9 1000.3 202.9 1002.4 197.1C1003.9 193 1004.8 187.9 1007.1 184.3C1009.9 179.8 1016.1 177.5 1019.9 173.8C1024.8 169.1 1029.2 164 1032.8 158.2C1040 146.6 1043.9 132.9 1043.9 119.1Z" fill="#F3CE90"/>
<path d="M992.2 72.9C991.4 72.9 990.633 72.7333 989.9 72.4C988.167 71.6666 986.433 71.0333 984.7 70.5C981.6 69.6 979.9 66.3 980.8 63.3C981.7 60.2 985 58.5 988.1 59.4C990.2 60.1 992.4 60.8 994.5 61.7C997.4 63 998.8 66.4 997.5 69.4C996.6 71.6 994.4 72.9 992.2 72.9Z" fill="white"/>
<path d="M1026.5 124.9C1023.3 124.9 1020.7 122.3 1020.7 119.1C1020.7 105 1015 91.9 1004.8 82.2C1002.4 80 1002.3 76.3 1004.5 74C1006.8 71.7 1010.4 71.6 1012.8 73.8C1025.2 85.5 1032.3 102.1 1032.3 119.1C1032.3 122.3 1029.7 124.9 1026.5 124.9Z" fill="white"/>
<path d="M1000.6 127.3C998.8 127 997.2 128.1 996.9 129.8L996.6 131.6L990.6 135.6C988.1 137.2 984.8 137.2 982.4 135.5L977.8 132.1C973.2 128.8 966.9 128.7 962.3 132.1L957.3 135.5C954.9 137.2 951.7 137.3 949.3 135.6L943.7 132L943.4 129.6C943.1 127.9 941.5 126.8 939.7 127.1C938 127.4 936.9 129 937.2 130.7L950.5 209.9C950.7 211.4 952 212.5 953.5 212.5C953.7 212.5 953.9 212.5 954.1 212.5C955.8 212.2 956.9 210.6 956.6 208.9L945.2 140.5L945.8 140.9C948 142.4 950.6 143.1 953.2 143.1C955.9 143.1 958.7 142.3 961 140.7L965.9 137.2C968.4 135.4 971.7 135.4 974.2 137.2L978.8 140.5C983.3 143.8 989.4 143.9 994 140.8L995.2 140.1L983.3 208.9C983 210.6 984.1 212.2 985.8 212.5C986 212.5 986.2 212.5 986.4 212.5C987.9 212.5 989.2 211.5 989.5 209.9L1003.1 130.9C1003.4 129.2 1002.3 127.6 1000.6 127.3Z" fill="#F5F5F7"/>
<path d="M990.9 206.9H948.8C945.7 206.9 943.2 209.4 943.2 212.6V232.9C943.2 236.1 945.7 238.6 948.8 238.6H954C955.9 245.6 962.3 250.8 969.9 250.8C977.5 250.8 983.9 245.6 985.8 238.6H990.9C994 238.6 996.6 236.1 996.6 232.9V212.6C996.6 209.4 994 206.9 990.9 206.9Z" fill="#7B3B32"/>
<path d="M970.2 30.2C968.3 30.2 966.8 28.7 966.8 26.8V4.3C966.8 2.5 968.3 0.899994 970.2 0.899994C972.1 0.899994 973.6 2.5 973.6 4.3V26.8C973.6 28.7 972.1 30.2 970.2 30.2Z" fill="#F5F5F7"/>
<path d="M1019.5 45.3C1018.6 45.5 1017.7 45.3 1016.9 44.8C1015.4 43.8 1014.9 41.7 1016 40.1L1028.3 21.3C1029.3 19.7 1031.4 19.3 1033 20.3C1034.5 21.3 1035 23.4 1033.9 25L1021.6 43.8C1021.1 44.6 1020.3 45.1 1019.5 45.3Z" fill="#F5F5F7"/>
<path d="M1067.3 69.5L1047.5 80.2C1045.9 81.1 1043.8 80.5 1042.9 78.9C1042 77.2 1042.6 75.2 1044.3 74.3L1064.1 63.5C1065.7 62.6 1067.8 63.3 1068.7 64.9C1069.6 66.5 1068.9 68.6 1067.3 69.5Z" fill="#F5F5F7"/>
<path d="M922.1 45.3C922.9 45.5 923.8 45.3 924.6 44.8C926.2 43.8 926.6 41.7 925.6 40.1L913.3 21.3C912.2 19.7 910.1 19.3 908.6 20.3C907 21.3 906.6 23.4 907.6 25L919.9 43.8C920.4 44.6 921.2 45.1 922.1 45.3Z" fill="#F5F5F7"/>
<path d="M874.2 69.5L894 80.2C895.7 81.1 897.7 80.5 898.6 78.9C899.5 77.2 898.9 75.2 897.3 74.3L877.5 63.5C875.8 62.6 873.8 63.3 872.9 64.9C872 66.5 872.6 68.6 874.2 69.5Z" fill="#F5F5F7"/>
<path d="M338.6 434.9L396 382.3C398 380.5 396.3 377.3 393.7 377.8L317.3 392.6L338.6 434.9Z" fill="#FEF6F7"/>
<path d="M317.2 392.7L338.5 434.9L55.4 577.6L34.1 535.3L317.2 392.7Z" fill="#FF5E85"/>
<path d="M332.7 423.5L338.5 434.9L55.4 577.6L49.6 566.1L332.7 423.5Z" fill="#FFA3BE"/>
<path d="M317.2 392.7L323 404.1L39.9 546.8L34.1 535.3L317.2 392.7Z" fill="#FFA3BE"/>
<path d="M3.39993 577.3C9.29993 589 23.4999 593.7 35.1999 587.8L55.3999 577.6L34.0999 535.3L13.8999 545.5C2.19993 551.4 -2.50007 565.6 3.39993 577.3Z" fill="#8F98F8"/>
<path d="M55.8 524.4L77.1 566.6L55.4 577.6L34.1 535.3L55.8 524.4Z" fill="#6974E0"/>
<path d="M393.7 377.8L366.5 383.1C369.4 388.6 372.8 395.3 375.7 400.9L396 382.3C398 380.5 396.3 377.3 393.7 377.8Z" fill="#FF5E85"/>
<path d="M146.5 853.9C153 853.9 158.1 848.5 157.7 842L153.9 783.8H139.1L135.3 842C134.9 848.5 140 853.9 146.5 853.9Z" fill="#F09E6F"/>
<path d="M195 859.1C202.7 859.1 207.8 851.1 204.4 844.2L175.8 785H161L185.3 852.3C186.7 856.4 190.7 859.1 195 859.1Z" fill="#F09E6F"/>
<path d="M94.4999 859.1C86.7999 859.1 81.7999 851.1 85.0999 844.2L113.8 785H128.6L104.3 852.3C102.8 856.4 98.8999 859.1 94.4999 859.1Z" fill="#F09E6F"/>
<path d="M90.6 758.8V777.7C90.6 784.5 115.8 790 146.8 790C177.9 790 203.1 784.5 203.1 777.7V758.8H90.6Z" fill="#F2CD8F"/>
<path d="M90.6 758.8C90.6 765.6 115.8 771.1 146.8 771.1C177.9 771.1 203.1 765.6 203.1 758.8C203.1 752.1 177.9 746.6 146.8 746.6C115.8 746.6 90.6 752.1 90.6 758.8Z" fill="#EF7C59"/>
<path d="M127.7 731.1C127.7 731.1 123.2 747 126.2 752.3C129.2 757.6 156.6 755.1 171.1 755.1C185.6 755.1 189.4 752.7 183.9 747.4C178.5 742.2 158.8 741.1 148.3 731.1H127.7Z" fill="#6FC183"/>
<path d="M103.2 581.8C103.2 581.8 103.2 597.9 111.9 619.6C120.5 641.3 122.2 657.8 122.2 657.8C122.2 657.8 122.5 686.7 123.9 704.3C125.3 721.8 127.7 731.1 127.7 731.1H148.3C148.3 731.1 159 672.6 159.3 643C159.7 613.4 141.3 571.8 141.3 571.8L103.2 581.8Z" fill="#1E3F96"/>
<path d="M126.3 577C126.3 577 121.8 596.2 132.8 609C143.9 621.7 156.2 654 156.2 654C156.2 654 144.7 659.5 140.8 678.8C137 698.1 132.5 713.2 132.5 713.2C132.5 713.2 145.2 715.3 148.3 722.2C148.3 722.2 181.4 679.5 187.2 656.1C193.1 632.7 179.6 581.8 179.6 581.8L126.3 577Z" fill="#2C4DA2"/>
<path d="M91.1 523.7C91.1 523.7 85.2 538.6 87.9 542.5C90.7 546.3 105.9 553.2 105.9 553.2V525.4L91.1 523.7Z" fill="#FFF2D1"/>
<path d="M123.9 475.5C123.9 475.5 103.3 478.6 92.7999 509.1C88.9999 520.2 87.8999 525.1 87.8999 525.1C87.8999 525.1 97.6999 529.9 108.1 530.6C118.5 531.3 123.9 475.5 123.9 475.5Z" fill="#EF7C59"/>
<path d="M148.3 409.6C170 407.8 173 426.3 172.4 443C171.9 459.7 169 468.5 160.4 468.7C151.7 469 123.1 456.5 123.9 435.3C124.7 414.1 135.3 410.7 148.3 409.6Z" fill="#FFF2D1"/>
<path d="M156.2 463.8C156.2 463.8 153.7 475 155.1 479.5C156.4 484 142.6 484.4 134.3 481.6C126 478.7 129.1 478.6 131.6 467.6C134.2 456.6 133.5 452.3 133.5 452.3L156.2 463.8Z" fill="#FFF2D1"/>
<path d="M204.2 509.7L221.7 519L234.2 488.7L246.2 494.5C246.2 494.5 249.5 535.5 226.1 540.5C219.7 541.9 188.5 526.2 188.5 526.2L204.2 509.7Z" fill="#FFF2D1"/>
<path d="M158 476.2C185.9 487.6 210.2 509.1 210.2 509.1C210.2 509.1 209.4 523.4 199.4 534.1L161.9 519.2L158 476.2Z" fill="#EF7C59"/>
<path d="M142.5 471.9C108.3 469.9 106.4 502.1 102 544.1C99.3 569.7 98 584.4 99.3 586.2C100.6 588 116.8 581.8 137.4 582.7C158 583.5 178.1 590.3 182.6 589.4C187.1 588.5 178.1 525.3 177.2 513.2C176.3 501.1 171 473.5 142.5 471.9Z" fill="#EF7C59"/>
<path d="M234.2 488.7C234.2 488.7 230.8 484.1 230.6 480.5C230.5 476.9 228.7 471.4 227 470.3C225.2 469.3 229.6 465.1 233.8 470.3C238 475.6 236.5 478.7 239.8 478.2C243.1 477.8 256 471.3 260.9 468.4C265.9 465.5 271.6 466.1 267.8 475.5C264 484.9 250.5 493.3 246.2 494.5L234.2 488.7Z" fill="#FFF2D1"/>
<path d="M146.1 727.1C146.1 727.1 144.8 716.9 132.8 715.3C129.5 714.9 116.6 729.5 119.9 736.8C123.1 744 141.3 754.1 147 758C152.7 762 165 770.9 168.7 767C172.4 763 168.7 754.9 163 749.2C157.3 743.6 146.1 727.1 146.1 727.1Z" fill="#44A95D"/>
<path d="M172.5 420.7C173.2 427 164.1 418.8 161.2 437.8C158.4 456.7 145.4 461.6 134.6 460.7C123.8 459.8 120.9 444.8 120.9 434.9C120.9 425 118.6 409.4 133.5 409.5C148.3 409.6 169.5 393.1 172.5 420.7Z" fill="url(#paint0_linear_49_557)"/>
<path d="M158 426C158 426 144.4 453.8 117.3 447.5C90.2999 441.2 117.5 423.5 117.5 423.5L158 426Z" fill="#8F98F8"/>
<path d="M174.2 419.4C174.2 419.4 162.5 428.6 139.7 427.5C117 426.3 117.5 423.5 117.5 423.5C117.5 423.5 113.7 392.8 144.2 392.8C174.8 392.8 174.2 419.4 174.2 419.4Z" fill="#8F98F8"/>
<path d="M163.7 437.8C163.7 437.8 158.4 429.3 155.8 435.7C153.2 442.1 157.2 449.8 162.9 450.2L163.7 437.8Z" fill="#FFF2D1"/>
<path d="M727.5 665C727.5 665 724.3 670.6 717.7 670.6C711.1 670.6 709.4 676.4 708.2 673.4C706.9 670.4 710.1 665.7 713.7 665C717.3 664.2 722.5 656.4 727.5 656.8C732.4 657.2 727.5 665 727.5 665Z" fill="#FFF2D1"/>
<path d="M727.5 653.6C727.5 653.6 712.5 652.2 707.9 653.6C703.3 655.1 696.7 667.5 698.2 669.6C699.7 671.7 704.7 673 707.9 671.4C711.1 669.7 712 662.5 714.8 662.6C717.6 662.6 729.4 660.8 729.4 660.8L727.5 653.6Z" fill="#FFF2D1"/>
<path d="M809.8 621.3C806 624.5 783.6 648.5 776.7 653.6C769.9 658.8 727.5 653.6 727.5 653.6V665C727.5 665 761.5 673.4 772.4 673.4C783.4 673.4 803.5 659.1 803.5 659.1L809.8 621.3Z" fill="#FFF2D1"/>
<path d="M924.3 831.1C924.3 831.1 938.8 822.8 942.5 835.1C946.2 847.4 944.5 856.8 947.5 866.4C950.5 876.1 949.6 889 941.2 879.4C936.5 874.1 925.7 848.9 917.4 842.4L924.3 831.1Z" fill="#FFF2D1"/>
<path d="M842.3 773.6C842.3 773.6 842.3 804 862.9 818.3C883.5 832.5 917.4 842.4 917.4 842.4L924.3 831.1C924.3 831.1 888.9 803.5 881.1 796.7C873.2 789.8 872.7 761.3 872.7 761.3L842.3 773.6Z" fill="#FFF2D1"/>
<path d="M804 764.2C804 764.2 779.4 801.1 770.1 862.5L784.3 866.4C784.3 866.4 798.6 842.8 802 824.7C805.4 806.5 839.3 774.1 839.3 774.1L804 764.2Z" fill="#FFF2D1"/>
<path d="M784.3 866.4C784.3 866.4 790.8 883.7 776.7 885.1C762.7 886.4 736.7 888.1 730.4 885.1C724.1 882.1 758.1 873.1 762.4 870.1C766.7 867.1 770.1 862.5 770.1 862.5L784.3 866.4Z" fill="#FFF2D1"/>
<path d="M789.1 565.6C789.1 565.6 785.4 595.6 783.6 621.3C783.6 621.3 797.7 613.4 816.4 613.4L811.7 558.8L789.1 565.6Z" fill="#121674"/>
<path d="M816.7 549.5C791.9 551.5 794 576.6 794.9 592.6C795.8 608.6 809.6 612.1 824.7 602.8C839.8 593.5 842.9 581.9 842 572.2C841.1 562.4 833.1 548.2 816.7 549.5Z" fill="#FFF2D1"/>
<path d="M818.3 618.1C818.3 618.1 806.8 619.7 805 627C803.1 634.3 791 659.9 800 673.4C809 686.9 813.7 688.7 813.7 696.8C813.7 704.8 779.8 729.3 776.8 760C775.4 775.4 794.4 771.7 807.2 774.3C820 776.8 826.9 792.5 853.9 784.1C881 775.7 913.2 772.8 919.4 756.7C925.6 740.6 906.2 731.5 893.4 721.6C880.6 711.8 856.5 694.6 856.5 684.3C856.5 674.1 871.6 624.9 853.9 621.3C836.3 617.8 818.3 618.1 818.3 618.1Z" fill="#FF5833"/>
<path d="M812.4 604.5C812.4 604.5 817 613.4 816.4 618.7C815.8 624.1 811.7 621.5 810.5 625.1C809.2 628.7 808.3 644.9 823.7 643C839 641.1 844.5 631.3 844.3 624.9C844.1 616.9 835.8 620 834.3 615.8C832.8 611.5 831.1 593 831.1 593L812.4 604.5Z" fill="#FFF2D1"/>
<path d="M856.5 626.6C874.5 638.8 838.6 677 827.1 685.1C815.6 693.1 776.7 681.1 776.7 681.1C776.7 681.1 775.7 673.7 781.2 671.2C781.2 671.2 811.9 670.5 820.3 667.9C828.7 665.3 845.2 618.9 856.5 626.6Z" fill="#FFF2D1"/>
<path d="M872 800.5L618.6 734.9C616 734.3 614.5 731.7 615.2 729.1L636.1 648.4C636.7 645.8 639.3 644.3 641.9 644.9L895.3 710.5C897.9 711.2 899.4 713.8 898.7 716.4L877.8 797.1C877.2 799.7 874.5 801.2 872 800.5Z" fill="white"/>
<path d="M701.2 744.4L633.5 726.8C631.8 726.4 630.8 724.7 631.2 723L647.1 661.5C647.6 659.8 649.3 658.8 651 659.2L718.7 676.8C720.4 677.2 721.4 678.9 721 680.6L705.1 742.1C704.6 743.8 702.9 744.8 701.2 744.4Z" fill="#2C4DA2"/>
<path d="M851.6 729.7C851.2 729.7 850.8 729.667 850.4 729.6L735.5 699.8C732.9 699.1 731.3 696.5 732 693.9C732.7 691.4 735.3 689.8 737.9 690.5L852.8 720.2C855.4 720.9 856.9 723.5 856.2 726.1C855.7 728.3 853.7 729.7 851.6 729.7Z" fill="#CCCCFF"/>
<path d="M785.4 735.1C785 735.1 784.6 735.033 784.2 734.9L730 720.9C727.4 720.2 725.9 717.6 726.5 715C727.2 712.5 729.8 710.9 732.4 711.6L786.6 725.6C789.2 726.3 790.7 728.9 790 731.5C789.5 733.6 787.5 735.1 785.4 735.1Z" fill="#CCCCFF"/>
<path d="M780.7 753C780.3 753 779.9 752.967 779.5 752.9L725.4 738.8C722.8 738.2 721.2 735.5 721.9 733C722.6 730.4 725.2 728.9 727.8 729.5L781.9 743.5C784.5 744.2 786.1 746.8 785.4 749.4C784.8 751.6 782.9 753 780.7 753Z" fill="#CCCCFF"/>
<path d="M781.2 671.2C781.2 671.2 762.4 666.4 755.6 673.4C748.8 680.4 747.3 684.4 752 686.8C756.7 689.1 761.7 691 765.3 687.8C768.8 684.6 773.7 680.2 776.7 681.1C779.8 682 781.2 671.2 781.2 671.2Z" fill="#FFF2D1"/>
<path d="M780 676.9C780 676.9 781.9 681.2 774.1 687C770.7 689.5 767.2 686.9 772.8 681.9C778.4 677 780 676.9 780 676.9Z" fill="#FFF2D1"/>
<path d="M820.6 570.1C820.6 570.1 791.7 574 783.6 568C783.6 568 789.1 533.6 821.9 533.6C838.5 533.6 848.2 547 853.2 558.3C858.2 569.6 861 607.9 861 607.9C861 607.9 836.6 622.6 825.6 622.6C825.6 622.6 829.5 585.3 820.6 570.1Z" fill="#121674"/>
<path d="M746.5 875.9C748.9 884.4 777.8 874.4 785.1 869C785.1 869 788.5 876 785.1 885.5C781.7 895.1 727.6 891.7 727.3 886.7C727.1 881.8 746.5 875.9 746.5 875.9Z" fill="#FF5E85"/>
<path d="M924.3 831.1C924.3 831.1 938 820.7 943.2 833.6C948.5 846.6 952.9 882.5 949.1 883.6C945.3 884.6 940.7 879.3 938.1 874.9C938.1 874.9 942.2 874 940.6 864.8C939.1 855.5 934.4 830.8 924.3 831.1Z" fill="#FF5E85"/>
<defs>
<linearGradient id="paint0_linear_49_557" x1="120.7" y1="404.7" x2="172.5" y2="404.7" gradientUnits="userSpaceOnUse">
<stop stop-color="#0A193D"/>
<stop offset="1" stop-color="#3B4764"/>
</linearGradient>
</defs>
</svg>
